<?xml version="1.0" encoding="UTF-8" standalone="no"?>
<!-- Created with Inkscape (http://www.inkscape.org/) -->

<svg
   xmlns:osb="http://www.openswatchbook.org/uri/2009/osb"
   xmlns:dc="http://purl.org/dc/elements/1.1/"
   xmlns:cc="http://creativecommons.org/ns#"
   xmlns:rdf="http://www.w3.org/1999/02/22-rdf-syntax-ns#"
   xmlns:svg="http://www.w3.org/2000/svg"
   xmlns="http://www.w3.org/2000/svg"
   xmlns:sodipodi="http://sodipodi.sourceforge.net/DTD/sodipodi-0.dtd"
   xmlns:inkscape="http://www.inkscape.org/namespaces/inkscape"
   width="60mm"
   height="50mm"
   viewBox="0 0 60 50"
   version="1.1"
   id="svg8"
   inkscape:version="0.92.4 (unknown)"
   sodipodi:docname="jingelski_logo_ring_proposals.svg">
  <defs
     id="defs2">
    <linearGradient
       id="linearGradient6180"
       osb:paint="solid">
      <stop
         style="stop-color:#000000;stop-opacity:1;"
         offset="0"
         id="stop6178" />
    </linearGradient>
  </defs>
  <sodipodi:namedview
     id="base"
     pagecolor="#ffffff"
     bordercolor="#666666"
     borderopacity="1.0"
     inkscape:pageopacity="0.0"
     inkscape:pageshadow="2"
     inkscape:zoom="8.5936667"
     inkscape:cx="84.353994"
     inkscape:cy="100.83391"
     inkscape:document-units="mm"
     inkscape:current-layer="layer1"
     showgrid="true"
     inkscape:window-width="1853"
     inkscape:window-height="1025"
     inkscape:window-x="67"
     inkscape:window-y="685"
     inkscape:window-maximized="1">
    <inkscape:grid
       type="xygrid"
       id="grid6211" />
  </sodipodi:namedview>
  <metadata
     id="metadata5">
    <rdf:RDF>
      <cc:Work
         rdf:about="">
        <dc:format>image/svg+xml</dc:format>
        <dc:type
           rdf:resource="http://purl.org/dc/dcmitype/StillImage" />
        <dc:title></dc:title>
      </cc:Work>
    </rdf:RDF>
  </metadata>
  <g
     inkscape:label="Layer 1"
     inkscape:groupmode="layer"
     id="layer1"
     transform="translate(0,-247)">
    <text
       xml:space="preserve"
       style="font-style:normal;font-weight:normal;font-size:10.58333302px;line-height:1.25;font-family:sans-serif;letter-spacing:0px;word-spacing:0px;fill:#000000;fill-opacity:1;stroke:none;stroke-width:0.26458332"
       x="30.238094"
       y="145.80952"
       id="text3715"><tspan
         sodipodi:role="line"
         id="tspan3713"
         x="30.238094"
         y="155.17329"
         style="stroke-width:0.26458332" /></text>
    <g
       aria-label="j  i  n  g  e  l  s  k  i"
       style="font-style:normal;font-variant:normal;font-weight:300;font-stretch:normal;font-size:6.3499999px;line-height:1.25;font-family:Nexa;-inkscape-font-specification:'Nexa, Light';font-variant-ligatures:normal;font-variant-caps:normal;font-variant-numeric:normal;font-feature-settings:normal;text-align:start;letter-spacing:0px;word-spacing:0px;writing-mode:lr-tb;text-anchor:start;fill:#000000;fill-opacity:1;stroke:none;stroke-width:0.26458332"
       id="text3719"
       transform="translate(-1.108385,-10.014141)">
      <path
         d="m 5.9063062,286.50364 c 0,0.1651 0.127,0.24765 0.254,0.24765 0.12065,0 0.24765,-0.0825 0.24765,-0.24765 0,-0.1651 -0.127,-0.24765 -0.24765,-0.24765 -0.127,0 -0.254,0.0826 -0.254,0.24765 z m 0.1016,1.04775 h 0.3048 v 3.44805 c 0.00635,0.60325 -0.1397,1.07315 -0.8382,1.07315 -0.2159,0 -0.37465,-0.0508 -0.56515,-0.1524 l 0.0889,-0.2667 c 0.14605,0.0826 0.31115,0.127 0.47625,0.127 0.4826,0 0.5334,-0.3556 0.5334,-0.78105 z"
         style="font-style:normal;font-variant:normal;font-weight:300;font-stretch:normal;font-size:6.3499999px;font-family:Nexa;-inkscape-font-specification:'Nexa, Light';font-variant-ligatures:normal;font-variant-caps:normal;font-variant-numeric:normal;font-feature-settings:normal;text-align:start;writing-mode:lr-tb;text-anchor:start;stroke-width:0.26458332"
         id="path3725"
         inkscape:connector-curvature="0" />
      <path
         d="m 10.568397,286.53539 c 0,0.1651 0.127,0.24765 0.254,0.24765 0.12065,0 0.24765,-0.0826 0.24765,-0.24765 0,-0.1651 -0.127,-0.24765 -0.24765,-0.24765 -0.127,0 -0.254,0.0826 -0.254,0.24765 z m 0.0889,1.00965 h 0.31115 v 3.1496 h -0.31115 z"
         style="font-style:normal;font-variant:normal;font-weight:300;font-stretch:normal;font-size:6.3499999px;font-family:Nexa;-inkscape-font-specification:'Nexa, Light';font-variant-ligatures:normal;font-variant-caps:normal;font-variant-numeric:normal;font-feature-settings:normal;text-align:start;writing-mode:lr-tb;text-anchor:start;stroke-width:0.26458332"
         id="path3727"
         inkscape:connector-curvature="0" />
      <path
         d="m 15.662585,287.55774 h -0.3048 v 3.1369 h 0.31115 v -1.74625 c 0,-0.65405 0.4572,-1.143 1.1176,-1.143 0.66675,0 1.09855,0.381 1.09855,1.08585 v 1.8034 h 0.31115 v -1.80975 c 0,-0.86995 -0.57785,-1.3843 -1.41605,-1.3843 -0.43815,0.006 -0.8763,0.18415 -1.1176,0.61595 z"
         style="font-style:normal;font-variant:normal;font-weight:300;font-stretch:normal;font-size:6.3499999px;font-family:Nexa;-inkscape-font-specification:'Nexa, Light';font-variant-ligatures:normal;font-variant-caps:normal;font-variant-numeric:normal;font-feature-settings:normal;text-align:start;writing-mode:lr-tb;text-anchor:start;stroke-width:0.26458332"
         id="path3729"
         inkscape:connector-curvature="0" />
      <path
         d="m 25.022485,287.43074 -0.3048,0.3556 c -0.2413,-0.17145 -0.5715,-0.28575 -0.889,-0.28575 -0.8128,0 -1.4732,0.55245 -1.4732,1.53035 0,0.8382 0.56515,1.51765 1.4732,1.51765 0.5842,0 1.18745,0.2667 1.18745,0.9398 0,0.66675 -0.5588,0.94615 -1.18745,0.94615 -0.62865,0 -1.17475,-0.3048 -1.17475,-0.94615 h -0.31115 c 0,0.79375 0.65405,1.25095 1.4859,1.25095 0.83185,0 1.49225,-0.4064 1.49225,-1.25095 0,-0.53975 -0.3048,-0.9271 -0.85725,-1.12395 0.5207,-0.23495 0.84455,-0.7874 0.84455,-1.3335 0,-0.508 -0.1651,-0.8255 -0.38735,-1.0668 l 0.3048,-0.3556 z m -1.1938,0.381 c 0.6477,0 1.17475,0.42545 1.17475,1.2192 0,0.6477 -0.52705,1.2065 -1.17475,1.2065 -0.71755,0 -1.16205,-0.5588 -1.16205,-1.2065 0,-0.81915 0.5207,-1.2192 1.16205,-1.2192 z"
         style="font-style:normal;font-variant:normal;font-weight:300;font-stretch:normal;font-size:6.3499999px;font-family:Nexa;-inkscape-font-specification:'Nexa, Light';font-variant-ligatures:normal;font-variant-caps:normal;font-variant-numeric:normal;font-feature-settings:normal;text-align:start;writing-mode:lr-tb;text-anchor:start;stroke-width:0.26458332"
         id="path3731"
         inkscape:connector-curvature="0" />
      <path
         d="m 30.862898,290.73909 c 0.50165,0 1.04775,-0.2032 1.35255,-0.60325 l -0.22225,-0.1778 c -0.23495,0.31115 -0.71755,0.47625 -1.1303,0.47625 -0.6477,0 -1.21285,-0.42545 -1.27635,-1.16205 h 2.82575 c 0.0063,-0.0826 0.0127,-0.1651 0.0127,-0.2413 0,-1.0541 -0.74295,-1.524 -1.5621,-1.524 -0.88265,0 -1.59385,0.67945 -1.59385,1.61925 0,0.99695 0.7112,1.6129 1.59385,1.6129 z m 1.27,-1.7399 h -2.54635 c 0.06985,-0.76835 0.62865,-1.2065 1.27635,-1.2065 0.75565,0 1.26365,0.4318 1.27,1.2065 z"
         style="font-style:normal;font-variant:normal;font-weight:300;font-stretch:normal;font-size:6.3499999px;font-family:Nexa;-inkscape-font-specification:'Nexa, Light';font-variant-ligatures:normal;font-variant-caps:normal;font-variant-numeric:normal;font-feature-settings:normal;text-align:start;writing-mode:lr-tb;text-anchor:start;stroke-width:0.26458332"
         id="path3733"
         inkscape:connector-curvature="0" />
      <path
         d="m 37.02577,286.24964 h -0.31115 v 4.445 h 0.31115 z"
         style="font-style:normal;font-variant:normal;font-weight:300;font-stretch:normal;font-size:6.3499999px;font-family:Nexa;-inkscape-font-specification:'Nexa, Light';font-variant-ligatures:normal;font-variant-caps:normal;font-variant-numeric:normal;font-feature-settings:normal;text-align:start;writing-mode:lr-tb;text-anchor:start;stroke-width:0.26458332"
         id="path3735"
         inkscape:connector-curvature="0" />
      <path
         d="m 43.542952,288.12924 0.1905,-0.2032 c -0.3175,-0.29845 -0.7239,-0.4191 -1.18745,-0.4191 -0.6223,0 -1.22555,0.2667 -1.22555,0.86995 0,0.635 0.60325,0.7493 1.2192,0.8509 0.508,0.0825 1.02235,0.17145 1.02235,0.60325 0,0.51435 -0.59055,0.61595 -0.9779,0.61595 -0.4191,0 -0.889,-0.15875 -1.14935,-0.5334 l -0.2286,0.2032 c 0.27305,0.4191 0.81915,0.62865 1.3716,0.62865 0.56515,0 1.28905,-0.1905 1.28905,-0.92075 0,-0.69215 -0.7493,-0.78105 -1.2954,-0.8763 -0.40005,-0.0699 -0.9525,-0.1524 -0.9525,-0.59055 0,-0.381 0.45085,-0.5588 0.92075,-0.5588 0.36195,0 0.67945,0.0444 1.0033,0.3302 z"
         style="font-style:normal;font-variant:normal;font-weight:300;font-stretch:normal;font-size:6.3499999px;font-family:Nexa;-inkscape-font-specification:'Nexa, Light';font-variant-ligatures:normal;font-variant-caps:normal;font-variant-numeric:normal;font-feature-settings:normal;text-align:start;writing-mode:lr-tb;text-anchor:start;stroke-width:0.26458332"
         id="path3737"
         inkscape:connector-curvature="0" />
      <path
         d="m 48.355163,286.24964 h -0.3048 v 4.445 h 0.3048 v -1.5367 l 1.68275,1.5367 h 0.3937 v -0.019 l -1.77165,-1.6383 1.5875,-1.46685 v -0.0127 h -0.41275 l -1.47955,1.3716 z"
         style="font-style:normal;font-variant:normal;font-weight:300;font-stretch:normal;font-size:6.3499999px;font-family:Nexa;-inkscape-font-specification:'Nexa, Light';font-variant-ligatures:normal;font-variant-caps:normal;font-variant-numeric:normal;font-feature-settings:normal;text-align:start;writing-mode:lr-tb;text-anchor:start;stroke-width:0.26458332"
         id="path3739"
         inkscape:connector-curvature="0" />
      <path
         d="m 54.237048,286.53539 c 0,0.1651 0.127,0.24765 0.254,0.24765 0.12065,0 0.24765,-0.0826 0.24765,-0.24765 0,-0.1651 -0.127,-0.24765 -0.24765,-0.24765 -0.127,0 -0.254,0.0826 -0.254,0.24765 z m 0.0889,1.00965 h 0.31115 v 3.1496 h -0.31115 z"
         style="font-style:normal;font-variant:normal;font-weight:300;font-stretch:normal;font-size:6.3499999px;font-family:Nexa;-inkscape-font-specification:'Nexa, Light';font-variant-ligatures:normal;font-variant-caps:normal;font-variant-numeric:normal;font-feature-settings:normal;text-align:start;writing-mode:lr-tb;text-anchor:start;stroke-width:0.26458332"
         id="path3741"
         inkscape:connector-curvature="0" />
    </g>
    <text
       xml:space="preserve"
       style="font-style:normal;font-variant:normal;font-weight:300;font-stretch:normal;font-size:10.58333302px;line-height:1.25;font-family:Nexa;-inkscape-font-specification:'Nexa, Light';font-variant-ligatures:normal;font-variant-caps:normal;font-variant-numeric:normal;font-feature-settings:normal;text-align:start;letter-spacing:0px;word-spacing:0px;writing-mode:lr-tb;text-anchor:start;fill:#000000;fill-opacity:1;stroke:none;stroke-width:0.26458332"
       x="94.872025"
       y="175.29167"
       id="text3723"><tspan
         sodipodi:role="line"
         id="tspan3721"
         x="94.872025"
         y="184.5542"
         style="stroke-width:0.26458332" /></text>
    <path
       style="fill:#000000;stroke-width:0.1;stroke-miterlimit:4;stroke-dasharray:none"
       d="m 4.8873363,281.65343 c -0.247977,0.008 -0.4845017,-0.019 -0.7056507,-0.0758 -0.3065847,-0.0791 -0.6434977,-0.27989 -0.8539944,-0.50922 -0.6472507,-0.70515 -0.6621477,-1.93116 -0.0396,-3.25994 0.2608937,-0.55683 0.5446767,-0.99432 0.9934264,-1.53141 l 0.1512687,-0.181 -0.04684,-0.0803 c -0.131921,-0.22624 -0.04903,-0.51341 0.1905167,-0.66017 0.06856,-0.0422 0.09915,-0.0494 0.220087,-0.0511 0.124319,-0.003 0.152155,0.004 0.241601,0.0503 l 0.101079,0.053 0.18698,-0.15125 c 0.8469294,-0.68485 1.8052958,-1.13351 2.6614615,-1.24597 0.2155007,-0.0281 0.4897847,-0.0315 0.6937394,-0.009 0.8428977,0.0983 1.4137061,0.58918 1.6209921,1.39414 0.04552,0.17672 0.05001,0.22219 0.05531,0.56112 0.0062,0.41566 -0.01661,0.60775 -0.119042,0.98892 -0.213347,0.79406 -0.6139024,1.54669 -1.2350161,2.32063 -0.153124,0.19077 -0.6724527,0.73446 -0.8270607,0.86581 l -0.09363,0.0798 0.0026,0.1356 c 0.0023,0.12383 -0.0023,0.14234 -0.05091,0.21295 -0.07612,0.11025 -0.179382,0.16654 -0.311022,0.16946 -0.06626,0.002 -0.1274977,-0.01 -0.1650397,-0.027 l -0.0597,-0.0289 -0.175879,0.11444 c -0.8444914,0.54942 -1.6915751,0.84632 -2.4355128,0.86429 z m -0.06082,-0.12355 c 0.2352737,-0.005 0.5010967,-0.0293 0.6792424,-0.071 0.5539937,-0.128 1.0789994,-0.35047 1.6122221,-0.6832 0.308343,-0.19243 0.290777,-0.17518 0.253709,-0.24941 -0.04557,-0.0912 -0.04346,-0.2476 0.0043,-0.3437 0.04612,-0.0921 0.167954,-0.18471 0.2661317,-0.20226 0.07974,-0.0139 0.202512,6.7e-4 0.18948,0.0218 -0.0047,0.01 0.002,0.0111 0.01458,0.007 0.013,-0.008 0.05785,0.0139 0.09964,0.0432 l 0.07594,0.0529 0.08088,-0.0681 c 0.1408777,-0.11886 0.5357747,-0.52597 0.7166944,-0.73889 0.7800977,-0.91796 1.2845601,-1.95528 1.4060331,-2.89111 0.03139,-0.24184 0.02405,-0.66526 -0.01513,-0.86913 -0.07528,-0.39182 -0.231467,-0.68759 -0.4996394,-0.9462 -0.285802,-0.27557 -0.5988747,-0.41829 -1.0362317,-0.47237 -0.1167977,-0.0142 -0.5264267,-0.0103 -0.6586314,0.008 -0.8328427,0.10548 -1.7818781,0.55161 -2.6335045,1.23797 l -0.167919,0.13533 0.03793,0.0815 c 0.111946,0.24114 -0.01189,0.55145 -0.259984,0.6514 -0.1101197,0.044 -0.3150047,0.0362 -0.4024527,-0.0153 l -0.06112,-0.0361 -0.07797,0.0843 c -0.2010717,0.21738 -0.4659537,0.57112 -0.6792904,0.90713 -0.8380777,1.31999 -1.0532054,2.7048 -0.5526427,3.55744 0.110486,0.18817 0.4025587,0.46985 0.5946507,0.57344 0.1737477,0.0938 0.4295687,0.17678 0.6477844,0.21052 0.09367,0.0144 0.223826,0.0198 0.364996,0.0177 z m 4.8871683,-4.74665 c -0.08382,0.002 -0.169768,-0.0368 -0.225003,-0.11537 -0.0353,-0.05 -0.04181,-0.0771 -0.03706,-0.15374 0.0065,-0.10799 0.0473,-0.17534 0.133421,-0.22125 0.128772,-0.0686 0.2925557,-0.0184 0.3529957,0.10876 0.0191,0.0403 0.03508,0.0928 0.03556,0.11688 4.08e-4,0.0245 -0.0136,0.0775 -0.03125,0.11812 -0.04147,0.0958 -0.133667,0.14588 -0.2286447,0.1466 z"
       id="path910"
       inkscape:connector-curvature="0" />
    <text
       xml:space="preserve"
       style="font-style:normal;font-weight:normal;font-size:10.58333302px;line-height:1.25;font-family:sans-serif;letter-spacing:0px;word-spacing:0px;fill:#000000;fill-opacity:1;stroke:none;stroke-width:0.26458332"
       x="30.502659"
       y="128.61159"
       id="text3715-3"><tspan
         sodipodi:role="line"
         id="tspan3713-6"
         x="30.502659"
         y="137.97536"
         style="stroke-width:0.26458332" /></text>
    <text
       xml:space="preserve"
       style="font-style:normal;font-variant:normal;font-weight:300;font-stretch:normal;font-size:10.58333302px;line-height:1.25;font-family:Nexa;-inkscape-font-specification:'Nexa, Light';font-variant-ligatures:normal;font-variant-caps:normal;font-variant-numeric:normal;font-feature-settings:normal;text-align:start;letter-spacing:0px;word-spacing:0px;writing-mode:lr-tb;text-anchor:start;fill:#000000;fill-opacity:1;stroke:none;stroke-width:0.26458332"
       x="95.136612"
       y="158.09375"
       id="text3723-0"><tspan
         sodipodi:role="line"
         id="tspan3721-9"
         x="95.136612"
         y="167.35628"
         style="stroke-width:0.26458332" /></text>
    <text
       xml:space="preserve"
       style="font-style:normal;font-weight:normal;font-size:10.58333302px;line-height:1.25;font-family:sans-serif;letter-spacing:0px;word-spacing:0px;fill:#000000;fill-opacity:1;stroke:none;stroke-width:0.26458332"
       x="30.235979"
       y="125.81339"
       id="text3715-1"><tspan
         sodipodi:role="line"
         id="tspan3713-8"
         x="30.235979"
         y="135.17715"
         style="stroke-width:0.26458332" /></text>
    <g
       aria-label="j  i  n  g  e  l  s  k  i"
       style="font-style:normal;font-variant:normal;font-weight:300;font-stretch:normal;font-size:6.3499999px;line-height:1.25;font-family:Nexa;-inkscape-font-specification:'Nexa, Light';font-variant-ligatures:normal;font-variant-caps:normal;font-variant-numeric:normal;font-feature-settings:normal;text-align:start;letter-spacing:0px;word-spacing:0px;writing-mode:lr-tb;text-anchor:start;fill:#000000;fill-opacity:1;stroke:none;stroke-width:0.26458332"
       id="text3719-7"
       transform="translate(-1.1105017,-35.301968)">
      <path
         d="m 5.9063062,286.50364 c 0,0.1651 0.127,0.24765 0.254,0.24765 0.12065,0 0.24765,-0.0825 0.24765,-0.24765 0,-0.1651 -0.127,-0.24765 -0.24765,-0.24765 -0.127,0 -0.254,0.0826 -0.254,0.24765 z m 0.1016,1.04775 h 0.3048 v 3.44805 c 0.00635,0.60325 -0.1397,1.07315 -0.8382,1.07315 -0.2159,0 -0.37465,-0.0508 -0.56515,-0.1524 l 0.0889,-0.2667 c 0.14605,0.0826 0.31115,0.127 0.47625,0.127 0.4826,0 0.5334,-0.3556 0.5334,-0.78105 z"
         style="font-style:normal;font-variant:normal;font-weight:300;font-stretch:normal;font-size:6.3499999px;font-family:Nexa;-inkscape-font-specification:'Nexa, Light';font-variant-ligatures:normal;font-variant-caps:normal;font-variant-numeric:normal;font-feature-settings:normal;text-align:start;writing-mode:lr-tb;text-anchor:start;stroke-width:0.26458332"
         id="path3725-9"
         inkscape:connector-curvature="0" />
      <path
         d="m 10.568397,286.53539 c 0,0.1651 0.127,0.24765 0.254,0.24765 0.12065,0 0.24765,-0.0826 0.24765,-0.24765 0,-0.1651 -0.127,-0.24765 -0.24765,-0.24765 -0.127,0 -0.254,0.0826 -0.254,0.24765 z m 0.0889,1.00965 h 0.31115 v 3.1496 h -0.31115 z"
         style="font-style:normal;font-variant:normal;font-weight:300;font-stretch:normal;font-size:6.3499999px;font-family:Nexa;-inkscape-font-specification:'Nexa, Light';font-variant-ligatures:normal;font-variant-caps:normal;font-variant-numeric:normal;font-feature-settings:normal;text-align:start;writing-mode:lr-tb;text-anchor:start;stroke-width:0.26458332"
         id="path3727-2"
         inkscape:connector-curvature="0" />
      <path
         d="m 15.662585,287.55774 h -0.3048 v 3.1369 h 0.31115 v -1.74625 c 0,-0.65405 0.4572,-1.143 1.1176,-1.143 0.66675,0 1.09855,0.381 1.09855,1.08585 v 1.8034 h 0.31115 v -1.80975 c 0,-0.86995 -0.57785,-1.3843 -1.41605,-1.3843 -0.43815,0.006 -0.8763,0.18415 -1.1176,0.61595 z"
         style="font-style:normal;font-variant:normal;font-weight:300;font-stretch:normal;font-size:6.3499999px;font-family:Nexa;-inkscape-font-specification:'Nexa, Light';font-variant-ligatures:normal;font-variant-caps:normal;font-variant-numeric:normal;font-feature-settings:normal;text-align:start;writing-mode:lr-tb;text-anchor:start;stroke-width:0.26458332"
         id="path3729-0"
         inkscape:connector-curvature="0" />
      <path
         d="m 25.022485,287.43074 -0.3048,0.3556 c -0.2413,-0.17145 -0.5715,-0.28575 -0.889,-0.28575 -0.8128,0 -1.4732,0.55245 -1.4732,1.53035 0,0.8382 0.56515,1.51765 1.4732,1.51765 0.5842,0 1.18745,0.2667 1.18745,0.9398 0,0.66675 -0.5588,0.94615 -1.18745,0.94615 -0.62865,0 -1.17475,-0.3048 -1.17475,-0.94615 h -0.31115 c 0,0.79375 0.65405,1.25095 1.4859,1.25095 0.83185,0 1.49225,-0.4064 1.49225,-1.25095 0,-0.53975 -0.3048,-0.9271 -0.85725,-1.12395 0.5207,-0.23495 0.84455,-0.7874 0.84455,-1.3335 0,-0.508 -0.1651,-0.8255 -0.38735,-1.0668 l 0.3048,-0.3556 z m -1.1938,0.381 c 0.6477,0 1.17475,0.42545 1.17475,1.2192 0,0.6477 -0.52705,1.2065 -1.17475,1.2065 -0.71755,0 -1.16205,-0.5588 -1.16205,-1.2065 0,-0.81915 0.5207,-1.2192 1.16205,-1.2192 z"
         style="font-style:normal;font-variant:normal;font-weight:300;font-stretch:normal;font-size:6.3499999px;font-family:Nexa;-inkscape-font-specification:'Nexa, Light';font-variant-ligatures:normal;font-variant-caps:normal;font-variant-numeric:normal;font-feature-settings:normal;text-align:start;writing-mode:lr-tb;text-anchor:start;stroke-width:0.26458332"
         id="path3731-2"
         inkscape:connector-curvature="0" />
      <path
         d="m 30.862898,290.73909 c 0.50165,0 1.04775,-0.2032 1.35255,-0.60325 l -0.22225,-0.1778 c -0.23495,0.31115 -0.71755,0.47625 -1.1303,0.47625 -0.6477,0 -1.21285,-0.42545 -1.27635,-1.16205 h 2.82575 c 0.0063,-0.0826 0.0127,-0.1651 0.0127,-0.2413 0,-1.0541 -0.74295,-1.524 -1.5621,-1.524 -0.88265,0 -1.59385,0.67945 -1.59385,1.61925 0,0.99695 0.7112,1.6129 1.59385,1.6129 z m 1.27,-1.7399 h -2.54635 c 0.06985,-0.76835 0.62865,-1.2065 1.27635,-1.2065 0.75565,0 1.26365,0.4318 1.27,1.2065 z"
         style="font-style:normal;font-variant:normal;font-weight:300;font-stretch:normal;font-size:6.3499999px;font-family:Nexa;-inkscape-font-specification:'Nexa, Light';font-variant-ligatures:normal;font-variant-caps:normal;font-variant-numeric:normal;font-feature-settings:normal;text-align:start;writing-mode:lr-tb;text-anchor:start;stroke-width:0.26458332"
         id="path3733-3"
         inkscape:connector-curvature="0" />
      <path
         d="m 37.02577,286.24964 h -0.31115 v 4.445 h 0.31115 z"
         style="font-style:normal;font-variant:normal;font-weight:300;font-stretch:normal;font-size:6.3499999px;font-family:Nexa;-inkscape-font-specification:'Nexa, Light';font-variant-ligatures:normal;font-variant-caps:normal;font-variant-numeric:normal;font-feature-settings:normal;text-align:start;writing-mode:lr-tb;text-anchor:start;stroke-width:0.26458332"
         id="path3735-7"
         inkscape:connector-curvature="0" />
      <path
         d="m 43.542952,288.12924 0.1905,-0.2032 c -0.3175,-0.29845 -0.7239,-0.4191 -1.18745,-0.4191 -0.6223,0 -1.22555,0.2667 -1.22555,0.86995 0,0.635 0.60325,0.7493 1.2192,0.8509 0.508,0.0825 1.02235,0.17145 1.02235,0.60325 0,0.51435 -0.59055,0.61595 -0.9779,0.61595 -0.4191,0 -0.889,-0.15875 -1.14935,-0.5334 l -0.2286,0.2032 c 0.27305,0.4191 0.81915,0.62865 1.3716,0.62865 0.56515,0 1.28905,-0.1905 1.28905,-0.92075 0,-0.69215 -0.7493,-0.78105 -1.2954,-0.8763 -0.40005,-0.0699 -0.9525,-0.1524 -0.9525,-0.59055 0,-0.381 0.45085,-0.5588 0.92075,-0.5588 0.36195,0 0.67945,0.0444 1.0033,0.3302 z"
         style="font-style:normal;font-variant:normal;font-weight:300;font-stretch:normal;font-size:6.3499999px;font-family:Nexa;-inkscape-font-specification:'Nexa, Light';font-variant-ligatures:normal;font-variant-caps:normal;font-variant-numeric:normal;font-feature-settings:normal;text-align:start;writing-mode:lr-tb;text-anchor:start;stroke-width:0.26458332"
         id="path3737-5"
         inkscape:connector-curvature="0" />
      <path
         d="m 48.355163,286.24964 h -0.3048 v 4.445 h 0.3048 v -1.5367 l 1.68275,1.5367 h 0.3937 v -0.019 l -1.77165,-1.6383 1.5875,-1.46685 v -0.0127 h -0.41275 l -1.47955,1.3716 z"
         style="font-style:normal;font-variant:normal;font-weight:300;font-stretch:normal;font-size:6.3499999px;font-family:Nexa;-inkscape-font-specification:'Nexa, Light';font-variant-ligatures:normal;font-variant-caps:normal;font-variant-numeric:normal;font-feature-settings:normal;text-align:start;writing-mode:lr-tb;text-anchor:start;stroke-width:0.26458332"
         id="path3739-9"
         inkscape:connector-curvature="0" />
      <path
         d="m 54.237048,286.53539 c 0,0.1651 0.127,0.24765 0.254,0.24765 0.12065,0 0.24765,-0.0826 0.24765,-0.24765 0,-0.1651 -0.127,-0.24765 -0.24765,-0.24765 -0.127,0 -0.254,0.0826 -0.254,0.24765 z m 0.0889,1.00965 h 0.31115 v 3.1496 h -0.31115 z"
         style="font-style:normal;font-variant:normal;font-weight:300;font-stretch:normal;font-size:6.3499999px;font-family:Nexa;-inkscape-font-specification:'Nexa, Light';font-variant-ligatures:normal;font-variant-caps:normal;font-variant-numeric:normal;font-feature-settings:normal;text-align:start;writing-mode:lr-tb;text-anchor:start;stroke-width:0.26458332"
         id="path3741-2"
         inkscape:connector-curvature="0" />
    </g>
    <text
       xml:space="preserve"
       style="font-style:normal;font-variant:normal;font-weight:300;font-stretch:normal;font-size:10.58333302px;line-height:1.25;font-family:Nexa;-inkscape-font-specification:'Nexa, Light';font-variant-ligatures:normal;font-variant-caps:normal;font-variant-numeric:normal;font-feature-settings:normal;text-align:start;letter-spacing:0px;word-spacing:0px;writing-mode:lr-tb;text-anchor:start;fill:#000000;fill-opacity:1;stroke:none;stroke-width:0.26458332"
       x="94.869911"
       y="155.29553"
       id="text3723-2"><tspan
         sodipodi:role="line"
         id="tspan3721-8"
         x="94.869911"
         y="164.55806"
         style="stroke-width:0.26458332" /></text>
    <path
       style="fill:#000000;stroke-width:0.1;stroke-miterlimit:4;stroke-dasharray:none"
       d="m 16.749068,251.14129 c 0.177994,0.17287 0.322893,0.36172 0.435665,0.56025 0.156066,0.27548 0.245671,0.65732 0.22693,0.96804 -0.05759,0.95544 -0.929194,1.81781 -2.317501,2.29306 -0.581778,0.19911 -1.093614,0.29888 -1.791688,0.34916 l -0.235276,0.0169 -0.02512,0.0895 c -0.0711,0.25203 -0.335253,0.3919 -0.607226,0.32152 -0.07776,-0.021 -0.104398,-0.0371 -0.189643,-0.12278 -0.08854,-0.0872 -0.102781,-0.1124 -0.131648,-0.20873 l -0.0321,-0.10952 -0.23872,-0.0292 c -1.080979,-0.13341 -2.0695416,-0.51084 -2.745103,-1.04892 -0.1699153,-0.13549 -0.362885,-0.33046 -0.4883826,-0.4928 -0.5148116,-0.67462 -0.5582243,-1.42621 -0.1231765,-2.13449 0.095504,-0.15552 0.1250904,-0.19031 0.3652146,-0.42957 0.2946935,-0.29319 0.4487242,-0.41025 0.7940672,-0.60134 0.7194003,-0.39812 1.5390493,-0.63283 2.5272293,-0.72364 0.243588,-0.0223 0.995458,-0.0265 1.197339,-0.007 l 0.122631,0.0103 0.09571,-0.096 c 0.08747,-0.0876 0.103996,-0.0972 0.188554,-0.11132 0.132175,-0.0218 0.244419,0.0135 0.338191,0.10526 0.04743,0.0463 0.08141,0.0984 0.09527,0.13736 l 0.02067,0.0631 0.204594,0.0466 c 0.981844,0.22585 1.783852,0.62893 2.313575,1.15156 z m -0.04662,0.12957 c -0.167046,-0.16571 -0.369171,-0.3401 -0.52291,-0.4393 -0.476897,-0.30963 -1.001669,-0.53265 -1.6114,-0.68514 -0.352621,-0.0882 -0.327895,-0.0879 -0.355614,-0.009 -0.03395,0.0961 -0.147912,0.20328 -0.250227,0.23568 -0.09835,0.0309 -0.249528,0.007 -0.330261,-0.0516 -0.0654,-0.0477 -0.140183,-0.14617 -0.11593,-0.15148 0.01152,-0.008 0.0066,-0.01 -0.0051,-0.0154 -0.01411,-0.006 -0.03022,-0.0512 -0.03815,-0.10161 l -0.01473,-0.0913 -0.105209,-0.0107 c -0.183358,-0.0188 -0.750526,-0.0202 -1.029366,-0.002 -1.202227,0.0765 -2.298836,0.4342 -3.0564106,0.99694 -0.195767,0.14541 -0.4952457,0.4448 -0.614682,0.6146 -0.2295588,0.32634 -0.3338185,0.64415 -0.3335599,1.0167 2.993e-4,0.39702 0.115113,0.72138 0.3800263,1.07355 0.070915,0.0938 0.3582782,0.38583 0.4632828,0.46821 0.6544138,0.52584 1.6345904,0.89859 2.7198974,1.03444 l 0.213891,0.0275 0.03212,-0.0841 c 0.09571,-0.24804 0.404937,-0.37451 0.649174,-0.26548 0.108437,0.048 0.244884,0.20138 0.268561,0.30014 l 0.0165,0.0691 0.114754,-0.002 c 0.296047,-0.006 0.734506,-0.0615 1.124414,-0.14152 1.531696,-0.31406 2.677282,-1.12129 2.942904,-2.07368 0.05859,-0.21017 0.05831,-0.61595 -5.89e-4,-0.8261 -0.05323,-0.19012 -0.17124,-0.43179 -0.298557,-0.6122 -0.05472,-0.0774 -0.141227,-0.17479 -0.240814,-0.27485 z m -6.8093641,-0.21828 c 0.059664,0.0589 0.091468,0.14766 0.073311,0.24199 -0.011436,0.0601 -0.026496,0.0838 -0.084848,0.13346 -0.082204,0.0706 -0.158986,0.0878 -0.25183,0.0576 -0.1387648,-0.0451 -0.2164338,-0.19772 -0.1669751,-0.32948 0.015705,-0.0417 0.042393,-0.0897 0.059379,-0.10679 0.017341,-0.0173 0.065195,-0.0441 0.1066636,-0.0595 0.097703,-0.0367 0.1977972,-0.005 0.2643506,0.0624 z"
       id="path910-9"
       inkscape:connector-curvature="0" />
    <text
       xml:space="preserve"
       style="font-style:normal;font-weight:normal;font-size:10.58333302px;line-height:1.25;font-family:sans-serif;letter-spacing:0px;word-spacing:0px;fill:#000000;fill-opacity:1;stroke:none;stroke-width:0.26458332"
       x="30.500546"
       y="108.61543"
       id="text3715-3-7"><tspan
         sodipodi:role="line"
         id="tspan3713-6-3"
         x="30.500546"
         y="117.9792"
         style="stroke-width:0.26458332" /></text>
    <text
       xml:space="preserve"
       style="font-style:normal;font-variant:normal;font-weight:300;font-stretch:normal;font-size:10.58333302px;line-height:1.25;font-family:Nexa;-inkscape-font-specification:'Nexa, Light';font-variant-ligatures:normal;font-variant-caps:normal;font-variant-numeric:normal;font-feature-settings:normal;text-align:start;letter-spacing:0px;word-spacing:0px;writing-mode:lr-tb;text-anchor:start;fill:#000000;fill-opacity:1;stroke:none;stroke-width:0.26458332"
       x="95.134499"
       y="138.09761"
       id="text3723-0-6"><tspan
         sodipodi:role="line"
         id="tspan3721-9-1"
         x="95.134499"
         y="147.36014"
         style="stroke-width:0.26458332" /></text>
    <g
       aria-label="j  i  n  g  e  l  s  k  i"
       style="font-style:normal;font-variant:normal;font-weight:300;font-stretch:normal;font-size:6.3499999px;line-height:1.25;font-family:Nexa;-inkscape-font-specification:'Nexa, Light';font-variant-ligatures:normal;font-variant-caps:normal;font-variant-numeric:normal;font-feature-settings:normal;text-align:start;letter-spacing:0px;word-spacing:0px;writing-mode:lr-tb;text-anchor:start;fill:#000000;fill-opacity:1;stroke:none;stroke-width:0.26458332"
       id="text3719-2"
       transform="translate(-1.1105017,3.5917937)">
      <path
         d="m 5.9063062,286.50364 c 0,0.1651 0.127,0.24765 0.254,0.24765 0.12065,0 0.24765,-0.0825 0.24765,-0.24765 0,-0.1651 -0.127,-0.24765 -0.24765,-0.24765 -0.127,0 -0.254,0.0826 -0.254,0.24765 z m 0.1016,1.04775 h 0.3048 v 3.44805 c 0.00635,0.60325 -0.1397,1.07315 -0.8382,1.07315 -0.2159,0 -0.37465,-0.0508 -0.56515,-0.1524 l 0.0889,-0.2667 c 0.14605,0.0826 0.31115,0.127 0.47625,0.127 0.4826,0 0.5334,-0.3556 0.5334,-0.78105 z"
         style="font-style:normal;font-variant:normal;font-weight:300;font-stretch:normal;font-size:6.3499999px;font-family:Nexa;-inkscape-font-specification:'Nexa, Light';font-variant-ligatures:normal;font-variant-caps:normal;font-variant-numeric:normal;font-feature-settings:normal;text-align:start;writing-mode:lr-tb;text-anchor:start;stroke-width:0.26458332"
         id="path3725-93"
         inkscape:connector-curvature="0" />
      <path
         d="m 10.568397,286.53539 c 0,0.1651 0.127,0.24765 0.254,0.24765 0.12065,0 0.24765,-0.0826 0.24765,-0.24765 0,-0.1651 -0.127,-0.24765 -0.24765,-0.24765 -0.127,0 -0.254,0.0826 -0.254,0.24765 z m 0.0889,1.00965 h 0.31115 v 3.1496 h -0.31115 z"
         style="font-style:normal;font-variant:normal;font-weight:300;font-stretch:normal;font-size:6.3499999px;font-family:Nexa;-inkscape-font-specification:'Nexa, Light';font-variant-ligatures:normal;font-variant-caps:normal;font-variant-numeric:normal;font-feature-settings:normal;text-align:start;writing-mode:lr-tb;text-anchor:start;stroke-width:0.26458332"
         id="path3727-1"
         inkscape:connector-curvature="0" />
      <path
         d="m 15.662585,287.55774 h -0.3048 v 3.1369 h 0.31115 v -1.74625 c 0,-0.65405 0.4572,-1.143 1.1176,-1.143 0.66675,0 1.09855,0.381 1.09855,1.08585 v 1.8034 h 0.31115 v -1.80975 c 0,-0.86995 -0.57785,-1.3843 -1.41605,-1.3843 -0.43815,0.006 -0.8763,0.18415 -1.1176,0.61595 z"
         style="font-style:normal;font-variant:normal;font-weight:300;font-stretch:normal;font-size:6.3499999px;font-family:Nexa;-inkscape-font-specification:'Nexa, Light';font-variant-ligatures:normal;font-variant-caps:normal;font-variant-numeric:normal;font-feature-settings:normal;text-align:start;writing-mode:lr-tb;text-anchor:start;stroke-width:0.26458332"
         id="path3729-9"
         inkscape:connector-curvature="0" />
      <path
         d="m 25.022485,287.43074 -0.3048,0.3556 c -0.2413,-0.17145 -0.5715,-0.28575 -0.889,-0.28575 -0.8128,0 -1.4732,0.55245 -1.4732,1.53035 0,0.8382 0.56515,1.51765 1.4732,1.51765 0.5842,0 1.18745,0.2667 1.18745,0.9398 0,0.66675 -0.5588,0.94615 -1.18745,0.94615 -0.62865,0 -1.17475,-0.3048 -1.17475,-0.94615 h -0.31115 c 0,0.79375 0.65405,1.25095 1.4859,1.25095 0.83185,0 1.49225,-0.4064 1.49225,-1.25095 0,-0.53975 -0.3048,-0.9271 -0.85725,-1.12395 0.5207,-0.23495 0.84455,-0.7874 0.84455,-1.3335 0,-0.508 -0.1651,-0.8255 -0.38735,-1.0668 l 0.3048,-0.3556 z m -1.1938,0.381 c 0.6477,0 1.17475,0.42545 1.17475,1.2192 0,0.6477 -0.52705,1.2065 -1.17475,1.2065 -0.71755,0 -1.16205,-0.5588 -1.16205,-1.2065 0,-0.81915 0.5207,-1.2192 1.16205,-1.2192 z"
         style="font-style:normal;font-variant:normal;font-weight:300;font-stretch:normal;font-size:6.3499999px;font-family:Nexa;-inkscape-font-specification:'Nexa, Light';font-variant-ligatures:normal;font-variant-caps:normal;font-variant-numeric:normal;font-feature-settings:normal;text-align:start;writing-mode:lr-tb;text-anchor:start;stroke-width:0.26458332"
         id="path3731-4"
         inkscape:connector-curvature="0" />
      <path
         d="m 30.862898,290.73909 c 0.50165,0 1.04775,-0.2032 1.35255,-0.60325 l -0.22225,-0.1778 c -0.23495,0.31115 -0.71755,0.47625 -1.1303,0.47625 -0.6477,0 -1.21285,-0.42545 -1.27635,-1.16205 h 2.82575 c 0.0063,-0.0826 0.0127,-0.1651 0.0127,-0.2413 0,-1.0541 -0.74295,-1.524 -1.5621,-1.524 -0.88265,0 -1.59385,0.67945 -1.59385,1.61925 0,0.99695 0.7112,1.6129 1.59385,1.6129 z m 1.27,-1.7399 h -2.54635 c 0.06985,-0.76835 0.62865,-1.2065 1.27635,-1.2065 0.75565,0 1.26365,0.4318 1.27,1.2065 z"
         style="font-style:normal;font-variant:normal;font-weight:300;font-stretch:normal;font-size:6.3499999px;font-family:Nexa;-inkscape-font-specification:'Nexa, Light';font-variant-ligatures:normal;font-variant-caps:normal;font-variant-numeric:normal;font-feature-settings:normal;text-align:start;writing-mode:lr-tb;text-anchor:start;stroke-width:0.26458332"
         id="path3733-7"
         inkscape:connector-curvature="0" />
      <path
         d="m 37.02577,286.24964 h -0.31115 v 4.445 h 0.31115 z"
         style="font-style:normal;font-variant:normal;font-weight:300;font-stretch:normal;font-size:6.3499999px;font-family:Nexa;-inkscape-font-specification:'Nexa, Light';font-variant-ligatures:normal;font-variant-caps:normal;font-variant-numeric:normal;font-feature-settings:normal;text-align:start;writing-mode:lr-tb;text-anchor:start;stroke-width:0.26458332"
         id="path3735-8"
         inkscape:connector-curvature="0" />
      <path
         d="m 43.542952,288.12924 0.1905,-0.2032 c -0.3175,-0.29845 -0.7239,-0.4191 -1.18745,-0.4191 -0.6223,0 -1.22555,0.2667 -1.22555,0.86995 0,0.635 0.60325,0.7493 1.2192,0.8509 0.508,0.0825 1.02235,0.17145 1.02235,0.60325 0,0.51435 -0.59055,0.61595 -0.9779,0.61595 -0.4191,0 -0.889,-0.15875 -1.14935,-0.5334 l -0.2286,0.2032 c 0.27305,0.4191 0.81915,0.62865 1.3716,0.62865 0.56515,0 1.28905,-0.1905 1.28905,-0.92075 0,-0.69215 -0.7493,-0.78105 -1.2954,-0.8763 -0.40005,-0.0699 -0.9525,-0.1524 -0.9525,-0.59055 0,-0.381 0.45085,-0.5588 0.92075,-0.5588 0.36195,0 0.67945,0.0444 1.0033,0.3302 z"
         style="font-style:normal;font-variant:normal;font-weight:300;font-stretch:normal;font-size:6.3499999px;font-family:Nexa;-inkscape-font-specification:'Nexa, Light';font-variant-ligatures:normal;font-variant-caps:normal;font-variant-numeric:normal;font-feature-settings:normal;text-align:start;writing-mode:lr-tb;text-anchor:start;stroke-width:0.26458332"
         id="path3737-4"
         inkscape:connector-curvature="0" />
      <path
         d="m 48.355163,286.24964 h -0.3048 v 4.445 h 0.3048 v -1.5367 l 1.68275,1.5367 h 0.3937 v -0.019 l -1.77165,-1.6383 1.5875,-1.46685 v -0.0127 h -0.41275 l -1.47955,1.3716 z"
         style="font-style:normal;font-variant:normal;font-weight:300;font-stretch:normal;font-size:6.3499999px;font-family:Nexa;-inkscape-font-specification:'Nexa, Light';font-variant-ligatures:normal;font-variant-caps:normal;font-variant-numeric:normal;font-feature-settings:normal;text-align:start;writing-mode:lr-tb;text-anchor:start;stroke-width:0.26458332"
         id="path3739-5"
         inkscape:connector-curvature="0" />
      <path
         d="m 54.237048,286.53539 c 0,0.1651 0.127,0.24765 0.254,0.24765 0.12065,0 0.24765,-0.0826 0.24765,-0.24765 0,-0.1651 -0.127,-0.24765 -0.24765,-0.24765 -0.127,0 -0.254,0.0826 -0.254,0.24765 z m 0.0889,1.00965 h 0.31115 v 3.1496 h -0.31115 z"
         style="font-style:normal;font-variant:normal;font-weight:300;font-stretch:normal;font-size:6.3499999px;font-family:Nexa;-inkscape-font-specification:'Nexa, Light';font-variant-ligatures:normal;font-variant-caps:normal;font-variant-numeric:normal;font-feature-settings:normal;text-align:start;writing-mode:lr-tb;text-anchor:start;stroke-width:0.26458332"
         id="path3741-0"
         inkscape:connector-curvature="0" />
    </g>
    <path
       style="fill:#000000;stroke-width:0.1;stroke-miterlimit:4;stroke-dasharray:none"
       d="m 48.556911,295.25936 c -0.247977,0.008 -0.484502,-0.019 -0.705651,-0.0758 -0.306585,-0.0791 -0.643499,-0.27989 -0.853995,-0.50922 -0.647251,-0.70515 -0.662148,-1.93116 -0.0396,-3.25994 0.260893,-0.55683 0.544677,-0.99432 0.993427,-1.53141 l 0.151269,-0.181 -0.04684,-0.0803 c -0.131921,-0.22624 -0.04903,-0.51341 0.190516,-0.66017 0.06856,-0.0422 0.09915,-0.0494 0.220087,-0.0511 0.124319,-0.003 0.152155,0.004 0.241601,0.0503 l 0.101079,0.053 0.186981,-0.15125 c 0.84693,-0.68485 1.805296,-1.13351 2.661463,-1.24597 0.215501,-0.0281 0.489785,-0.0315 0.693739,-0.009 0.842899,0.0983 1.413707,0.58918 1.620993,1.39414 0.04552,0.17672 0.05001,0.22219 0.05531,0.56112 0.0062,0.41566 -0.01661,0.60775 -0.119042,0.98892 -0.213347,0.79406 -0.613902,1.54669 -1.235016,2.32063 -0.153125,0.19077 -0.672453,0.73446 -0.827062,0.86581 l -0.09363,0.0798 0.0026,0.1356 c 0.0023,0.12383 -0.0023,0.14234 -0.05091,0.21295 -0.07612,0.11025 -0.179382,0.16654 -0.311022,0.16946 -0.06626,0.002 -0.127497,-0.01 -0.165039,-0.027 l -0.0597,-0.0289 -0.17588,0.11444 c -0.844492,0.54942 -1.691575,0.84632 -2.435514,0.86429 z m -0.06082,-0.12355 c 0.235273,-0.005 0.501097,-0.0293 0.679243,-0.071 0.553994,-0.128 1.078999,-0.35047 1.612222,-0.6832 0.308344,-0.19243 0.290778,-0.17518 0.25371,-0.24941 -0.04557,-0.0912 -0.04346,-0.2476 0.0043,-0.3437 0.04612,-0.0921 0.167954,-0.18471 0.266132,-0.20226 0.07974,-0.0139 0.202512,6.6e-4 0.18948,0.0218 -0.0047,0.01 0.002,0.0111 0.01458,0.007 0.013,-0.008 0.05785,0.0139 0.09964,0.0432 l 0.07594,0.0529 0.08088,-0.0681 c 0.140877,-0.11886 0.535774,-0.52597 0.716694,-0.73889 0.780099,-0.91796 1.284561,-1.95528 1.406034,-2.89111 0.03139,-0.24184 0.02405,-0.66526 -0.01513,-0.86913 -0.07528,-0.39182 -0.231469,-0.68759 -0.499641,-0.9462 -0.285802,-0.27557 -0.598875,-0.41829 -1.036233,-0.47237 -0.116797,-0.0142 -0.526426,-0.0103 -0.658631,0.008 -0.832843,0.10548 -1.781879,0.55161 -2.633506,1.23797 l -0.16792,0.13533 0.03793,0.0815 c 0.111946,0.24114 -0.01189,0.55145 -0.259984,0.6514 -0.110119,0.044 -0.315004,0.0362 -0.402452,-0.0153 l -0.06112,-0.0361 -0.07797,0.0843 c -0.201072,0.21738 -0.465955,0.57112 -0.679292,0.90713 -0.838077,1.31999 -1.053205,2.7048 -0.552642,3.55744 0.110486,0.18817 0.402558,0.46985 0.59465,0.57344 0.173748,0.0938 0.42957,0.17678 0.647786,0.21052 0.09367,0.0144 0.223826,0.0198 0.364996,0.0177 z m 4.887171,-4.74665 c -0.08382,0.002 -0.169768,-0.0368 -0.225003,-0.11537 -0.0353,-0.05 -0.04181,-0.0771 -0.03706,-0.15374 0.0065,-0.10799 0.0473,-0.17534 0.133421,-0.22125 0.128772,-0.0686 0.292556,-0.0184 0.352996,0.10876 0.0191,0.0403 0.03508,0.0928 0.03556,0.11688 3.97e-4,0.0245 -0.0136,0.0775 -0.03125,0.11812 -0.04147,0.0958 -0.133667,0.14588 -0.228645,0.1466 z"
       id="path910-3"
       inkscape:connector-curvature="0" />
    <g
       aria-label="j  i  n  g  e  l  s  k  i"
       style="font-style:normal;font-variant:normal;font-weight:300;font-stretch:normal;font-size:6.3499999px;line-height:1.25;font-family:Nexa;-inkscape-font-specification:'Nexa, Light';font-variant-ligatures:normal;font-variant-caps:normal;font-variant-numeric:normal;font-feature-settings:normal;text-align:start;letter-spacing:0px;word-spacing:0px;writing-mode:lr-tb;text-anchor:start;fill:#000000;fill-opacity:1;stroke:none;stroke-width:0.26458332"
       id="text3719-7-6"
       transform="translate(-1.4872683,-24.915473)">
      <path
         d="m 5.9063062,286.50364 c 0,0.1651 0.127,0.24765 0.254,0.24765 0.12065,0 0.24765,-0.0825 0.24765,-0.24765 0,-0.1651 -0.127,-0.24765 -0.24765,-0.24765 -0.127,0 -0.254,0.0826 -0.254,0.24765 z m 0.1016,1.04775 h 0.3048 v 3.44805 c 0.00635,0.60325 -0.1397,1.07315 -0.8382,1.07315 -0.2159,0 -0.37465,-0.0508 -0.56515,-0.1524 l 0.0889,-0.2667 c 0.14605,0.0826 0.31115,0.127 0.47625,0.127 0.4826,0 0.5334,-0.3556 0.5334,-0.78105 z"
         style="font-style:normal;font-variant:normal;font-weight:300;font-stretch:normal;font-size:6.3499999px;font-family:Nexa;-inkscape-font-specification:'Nexa, Light';font-variant-ligatures:normal;font-variant-caps:normal;font-variant-numeric:normal;font-feature-settings:normal;text-align:start;writing-mode:lr-tb;text-anchor:start;stroke-width:0.26458332"
         id="path3725-9-1"
         inkscape:connector-curvature="0" />
      <path
         d="m 10.568397,286.53539 c 0,0.1651 0.127,0.24765 0.254,0.24765 0.12065,0 0.24765,-0.0826 0.24765,-0.24765 0,-0.1651 -0.127,-0.24765 -0.24765,-0.24765 -0.127,0 -0.254,0.0826 -0.254,0.24765 z m 0.0889,1.00965 h 0.31115 v 3.1496 h -0.31115 z"
         style="font-style:normal;font-variant:normal;font-weight:300;font-stretch:normal;font-size:6.3499999px;font-family:Nexa;-inkscape-font-specification:'Nexa, Light';font-variant-ligatures:normal;font-variant-caps:normal;font-variant-numeric:normal;font-feature-settings:normal;text-align:start;writing-mode:lr-tb;text-anchor:start;stroke-width:0.26458332"
         id="path3727-2-0"
         inkscape:connector-curvature="0" />
      <path
         d="m 15.662585,287.55774 h -0.3048 v 3.1369 h 0.31115 v -1.74625 c 0,-0.65405 0.4572,-1.143 1.1176,-1.143 0.66675,0 1.09855,0.381 1.09855,1.08585 v 1.8034 h 0.31115 v -1.80975 c 0,-0.86995 -0.57785,-1.3843 -1.41605,-1.3843 -0.43815,0.006 -0.8763,0.18415 -1.1176,0.61595 z"
         style="font-style:normal;font-variant:normal;font-weight:300;font-stretch:normal;font-size:6.3499999px;font-family:Nexa;-inkscape-font-specification:'Nexa, Light';font-variant-ligatures:normal;font-variant-caps:normal;font-variant-numeric:normal;font-feature-settings:normal;text-align:start;writing-mode:lr-tb;text-anchor:start;stroke-width:0.26458332"
         id="path3729-0-6"
         inkscape:connector-curvature="0" />
      <path
         d="m 25.022485,287.43074 -0.3048,0.3556 c -0.2413,-0.17145 -0.5715,-0.28575 -0.889,-0.28575 -0.8128,0 -1.4732,0.55245 -1.4732,1.53035 0,0.8382 0.56515,1.51765 1.4732,1.51765 0.5842,0 1.18745,0.2667 1.18745,0.9398 0,0.66675 -0.5588,0.94615 -1.18745,0.94615 -0.62865,0 -1.17475,-0.3048 -1.17475,-0.94615 h -0.31115 c 0,0.79375 0.65405,1.25095 1.4859,1.25095 0.83185,0 1.49225,-0.4064 1.49225,-1.25095 0,-0.53975 -0.3048,-0.9271 -0.85725,-1.12395 0.5207,-0.23495 0.84455,-0.7874 0.84455,-1.3335 0,-0.508 -0.1651,-0.8255 -0.38735,-1.0668 l 0.3048,-0.3556 z m -1.1938,0.381 c 0.6477,0 1.17475,0.42545 1.17475,1.2192 0,0.6477 -0.52705,1.2065 -1.17475,1.2065 -0.71755,0 -1.16205,-0.5588 -1.16205,-1.2065 0,-0.81915 0.5207,-1.2192 1.16205,-1.2192 z"
         style="font-style:normal;font-variant:normal;font-weight:300;font-stretch:normal;font-size:6.3499999px;font-family:Nexa;-inkscape-font-specification:'Nexa, Light';font-variant-ligatures:normal;font-variant-caps:normal;font-variant-numeric:normal;font-feature-settings:normal;text-align:start;writing-mode:lr-tb;text-anchor:start;stroke-width:0.26458332"
         id="path3731-2-3"
         inkscape:connector-curvature="0" />
      <path
         d="m 30.862898,290.73909 c 0.50165,0 1.04775,-0.2032 1.35255,-0.60325 l -0.22225,-0.1778 c -0.23495,0.31115 -0.71755,0.47625 -1.1303,0.47625 -0.6477,0 -1.21285,-0.42545 -1.27635,-1.16205 h 2.82575 c 0.0063,-0.0826 0.0127,-0.1651 0.0127,-0.2413 0,-1.0541 -0.74295,-1.524 -1.5621,-1.524 -0.88265,0 -1.59385,0.67945 -1.59385,1.61925 0,0.99695 0.7112,1.6129 1.59385,1.6129 z m 1.27,-1.7399 h -2.54635 c 0.06985,-0.76835 0.62865,-1.2065 1.27635,-1.2065 0.75565,0 1.26365,0.4318 1.27,1.2065 z"
         style="font-style:normal;font-variant:normal;font-weight:300;font-stretch:normal;font-size:6.3499999px;font-family:Nexa;-inkscape-font-specification:'Nexa, Light';font-variant-ligatures:normal;font-variant-caps:normal;font-variant-numeric:normal;font-feature-settings:normal;text-align:start;writing-mode:lr-tb;text-anchor:start;stroke-width:0.26458332"
         id="path3733-3-2"
         inkscape:connector-curvature="0" />
      <path
         d="m 37.02577,286.24964 h -0.31115 v 4.445 h 0.31115 z"
         style="font-style:normal;font-variant:normal;font-weight:300;font-stretch:normal;font-size:6.3499999px;font-family:Nexa;-inkscape-font-specification:'Nexa, Light';font-variant-ligatures:normal;font-variant-caps:normal;font-variant-numeric:normal;font-feature-settings:normal;text-align:start;writing-mode:lr-tb;text-anchor:start;stroke-width:0.26458332"
         id="path3735-7-0"
         inkscape:connector-curvature="0" />
      <path
         d="m 43.542952,288.12924 0.1905,-0.2032 c -0.3175,-0.29845 -0.7239,-0.4191 -1.18745,-0.4191 -0.6223,0 -1.22555,0.2667 -1.22555,0.86995 0,0.635 0.60325,0.7493 1.2192,0.8509 0.508,0.0825 1.02235,0.17145 1.02235,0.60325 0,0.51435 -0.59055,0.61595 -0.9779,0.61595 -0.4191,0 -0.889,-0.15875 -1.14935,-0.5334 l -0.2286,0.2032 c 0.27305,0.4191 0.81915,0.62865 1.3716,0.62865 0.56515,0 1.28905,-0.1905 1.28905,-0.92075 0,-0.69215 -0.7493,-0.78105 -1.2954,-0.8763 -0.40005,-0.0699 -0.9525,-0.1524 -0.9525,-0.59055 0,-0.381 0.45085,-0.5588 0.92075,-0.5588 0.36195,0 0.67945,0.0444 1.0033,0.3302 z"
         style="font-style:normal;font-variant:normal;font-weight:300;font-stretch:normal;font-size:6.3499999px;font-family:Nexa;-inkscape-font-specification:'Nexa, Light';font-variant-ligatures:normal;font-variant-caps:normal;font-variant-numeric:normal;font-feature-settings:normal;text-align:start;writing-mode:lr-tb;text-anchor:start;stroke-width:0.26458332"
         id="path3737-5-6"
         inkscape:connector-curvature="0" />
      <path
         d="m 48.355163,286.24964 h -0.3048 v 4.445 h 0.3048 v -1.5367 l 1.68275,1.5367 h 0.3937 v -0.019 l -1.77165,-1.6383 1.5875,-1.46685 v -0.0127 h -0.41275 l -1.47955,1.3716 z"
         style="font-style:normal;font-variant:normal;font-weight:300;font-stretch:normal;font-size:6.3499999px;font-family:Nexa;-inkscape-font-specification:'Nexa, Light';font-variant-ligatures:normal;font-variant-caps:normal;font-variant-numeric:normal;font-feature-settings:normal;text-align:start;writing-mode:lr-tb;text-anchor:start;stroke-width:0.26458332"
         id="path3739-9-1"
         inkscape:connector-curvature="0" />
      <path
         d="m 54.237048,286.53539 c 0,0.1651 0.127,0.24765 0.254,0.24765 0.12065,0 0.24765,-0.0826 0.24765,-0.24765 0,-0.1651 -0.127,-0.24765 -0.24765,-0.24765 -0.127,0 -0.254,0.0826 -0.254,0.24765 z m 0.0889,1.00965 h 0.31115 v 3.1496 h -0.31115 z"
         style="font-style:normal;font-variant:normal;font-weight:300;font-stretch:normal;font-size:6.3499999px;font-family:Nexa;-inkscape-font-specification:'Nexa, Light';font-variant-ligatures:normal;font-variant-caps:normal;font-variant-numeric:normal;font-feature-settings:normal;text-align:start;writing-mode:lr-tb;text-anchor:start;stroke-width:0.26458332"
         id="path3741-2-5"
         inkscape:connector-curvature="0" />
    </g>
    <path
       style="fill:#000000;stroke-width:0.05381281;stroke-miterlimit:4;stroke-dasharray:none"
       d="m 25.367397,264.64881 c 0.01804,0.13223 0.01615,0.26041 -0.0021,0.38188 -0.02267,0.16886 -0.113935,0.36005 -0.224544,0.48567 -0.340979,0.38608 -0.996321,0.46304 -1.742444,0.2046 -0.31262,-0.10843 -0.562716,-0.23568 -0.87546,-0.44552 l -0.105111,-0.071 -0.04046,0.0296 c -0.113639,0.0833 -0.272049,0.0551 -0.364061,-0.0648 -0.02845,-0.033 -0.03269,-0.05 -0.04342,-0.11371 -0.0077,-0.0666 -0.0042,-0.082 0.01455,-0.13202 l 0.02313,-0.0568 -0.09145,-0.0916 c -0.414312,-0.41464 -0.708388,-0.90225 -0.816355,-1.35439 -0.02368,-0.1147 -0.0433,-0.26055 -0.04496,-0.37061 0.0054,-0.45663 0.235724,-0.78971 0.654871,-0.94592 0.09182,-0.0345 0.116216,-0.039 0.297121,-0.0615 0.222197,-0.0265 0.326298,-0.0254 0.53599,0.008 0.436885,0.0699 0.862269,0.2416 1.311426,0.53043 0.11089,0.0709 0.430921,0.31852 0.509945,0.39382 l 0.04818,0.0457 0.07265,-0.009 c 0.0663,-0.008 0.07614,-0.007 0.116723,0.0155 0.06286,0.0351 0.09819,0.0877 0.108518,0.15674 3.6e-4,0.0366 1.21e-4,0.0689 -0.0069,0.0896 l -0.01262,0.0335 0.07183,0.0872 c 0.341554,0.42105 0.548254,0.85759 0.599684,1.25475 z m -0.0627,0.0394 c -0.01457,-0.12582 -0.04315,-0.2666 -0.07606,-0.35957 -0.09903,-0.28949 -0.248319,-0.55769 -0.456514,-0.8243 -0.119563,-0.15483 -0.109571,-0.1462 -0.14797,-0.12153 -0.04581,0.0297 -0.130353,0.0362 -0.184181,0.017 -0.05166,-0.0195 -0.107752,-0.0799 -0.123305,-0.13097 -0.01341,-0.0415 -0.0099,-0.10855 -9.98e-4,-0.10264 0.009,4.5e-4 0.0097,-0.003 0.0089,-0.008 0.0022,-0.0105 -0.01957,-0.0297 0.01821,-0.0555 l 0.02386,-0.0439 -0.04171,-0.0388 c -0.07264,-0.0674 -0.311395,-0.25738 -0.435833,-0.34182 -0.535129,-0.36587 -1.118678,-0.5775 -1.626401,-0.58982 -0.131124,-0.003 -0.357341,0.0246 -0.464256,0.057 -0.205223,0.0633 -0.354995,0.16251 -0.47838,0.32059 -0.13133,0.16848 -0.190199,0.34403 -0.194334,0.58117 -0.0019,0.0631 0.02493,0.28225 0.04159,0.35199 0.102462,0.44 0.395399,0.92262 0.810689,1.33975 l 0.08222,0.082 0.04136,-0.0253 c 0.12272,-0.0734 0.295771,-0.0247 0.36321,0.10253 0.02916,0.0566 0.03865,0.16619 0.0161,0.21609 l -0.01525,0.0346 0.04903,0.0376 c 0.127572,0.0953 0.331852,0.21719 0.523563,0.31266 0.753564,0.37432 1.506874,0.4115 1.935008,0.0956 0.0945,-0.0696 0.228816,-0.2419 0.273412,-0.35051 0.04069,-0.0981 0.07067,-0.2398 0.07594,-0.35859 0.0032,-0.0508 -0.0011,-0.12086 -0.0097,-0.19646 z m -2.815165,-2.34851 c 0.0029,0.0455 -0.0049,0.0935 -0.04931,0.12672 -0.02499,0.0211 -0.03902,0.0269 -0.07996,0.0285 -0.05839,0.002 -0.0967,-0.015 -0.125959,-0.059 -0.0418,-0.0663 -0.02719,-0.15545 0.03933,-0.19484 0.01957,-0.0136 0.04807,-0.0242 0.0605,-0.0263 0.01333,-3.2e-4 0.0425,0.002 0.06466,0.0104 0.05337,0.0175 0.08521,0.0637 0.09079,0.1144 z"
       id="path910-9-4"
       inkscape:connector-curvature="0" />
  </g>
</svg>
