<?xml version="1.0" encoding="UTF-8" standalone="no"?>
<!-- Created with Inkscape (http://www.inkscape.org/) -->

<svg
   xmlns:osb="http://www.openswatchbook.org/uri/2009/osb"
   xmlns:dc="http://purl.org/dc/elements/1.1/"
   xmlns:cc="http://creativecommons.org/ns#"
   xmlns:rdf="http://www.w3.org/1999/02/22-rdf-syntax-ns#"
   xmlns:svg="http://www.w3.org/2000/svg"
   xmlns="http://www.w3.org/2000/svg"
   xmlns:sodipodi="http://sodipodi.sourceforge.net/DTD/sodipodi-0.dtd"
   xmlns:inkscape="http://www.inkscape.org/namespaces/inkscape"
   width="60mm"
   height="14mm"
   viewBox="0 0 60 14"
   version="1.1"
   id="svg8"
   inkscape:version="0.92.4 (unknown)"
   sodipodi:docname="jingelski_logo.svg">
  <defs
     id="defs2">
    <linearGradient
       id="linearGradient6180"
       osb:paint="solid">
      <stop
         style="stop-color:#000000;stop-opacity:1;"
         offset="0"
         id="stop6178" />
    </linearGradient>
  </defs>
  <sodipodi:namedview
     id="base"
     pagecolor="#ffffff"
     bordercolor="#666666"
     borderopacity="1.0"
     inkscape:pageopacity="0.0"
     inkscape:pageshadow="2"
     inkscape:zoom="5.3710417"
     inkscape:cx="113.38583"
     inkscape:cy="75.590551"
     inkscape:document-units="mm"
     inkscape:current-layer="layer1"
     showgrid="true"
     inkscape:window-width="1853"
     inkscape:window-height="1025"
     inkscape:window-x="67"
     inkscape:window-y="685"
     inkscape:window-maximized="1">
    <inkscape:grid
       type="xygrid"
       id="grid6211" />
  </sodipodi:namedview>
  <metadata
     id="metadata5">
    <rdf:RDF>
      <cc:Work
         rdf:about="">
        <dc:format>image/svg+xml</dc:format>
        <dc:type
           rdf:resource="http://purl.org/dc/dcmitype/StillImage" />
        <dc:title></dc:title>
      </cc:Work>
    </rdf:RDF>
  </metadata>
  <g
     inkscape:label="Layer 1"
     inkscape:groupmode="layer"
     id="layer1"
     transform="translate(0,-283)">
    <text
       xml:space="preserve"
       style="font-style:normal;font-weight:normal;font-size:10.58333302px;line-height:1.25;font-family:sans-serif;letter-spacing:0px;word-spacing:0px;fill:#000000;fill-opacity:1;stroke:none;stroke-width:0.26458332"
       x="30.238094"
       y="145.80952"
       id="text3715"><tspan
         sodipodi:role="line"
         id="tspan3713"
         x="30.238094"
         y="155.17329"
         style="stroke-width:0.26458332" /></text>
    <g
       aria-label="j  i  n  g  e  l  s  k  i"
       style="font-style:normal;font-variant:normal;font-weight:300;font-stretch:normal;font-size:6.3499999px;line-height:1.25;font-family:Nexa;-inkscape-font-specification:'Nexa, Light';font-variant-ligatures:normal;font-variant-caps:normal;font-variant-numeric:normal;font-feature-settings:normal;text-align:start;letter-spacing:0px;word-spacing:0px;writing-mode:lr-tb;text-anchor:start;fill:#000000;fill-opacity:1;stroke:none;stroke-width:0.26458332"
       id="text3719"
       transform="translate(-1.108385,1.09836)">
      <path
         d="m 5.9063062,286.50364 c 0,0.1651 0.127,0.24765 0.254,0.24765 0.12065,0 0.24765,-0.0825 0.24765,-0.24765 0,-0.1651 -0.127,-0.24765 -0.24765,-0.24765 -0.127,0 -0.254,0.0826 -0.254,0.24765 z m 0.1016,1.04775 h 0.3048 v 3.44805 c 0.00635,0.60325 -0.1397,1.07315 -0.8382,1.07315 -0.2159,0 -0.37465,-0.0508 -0.56515,-0.1524 l 0.0889,-0.2667 c 0.14605,0.0826 0.31115,0.127 0.47625,0.127 0.4826,0 0.5334,-0.3556 0.5334,-0.78105 z"
         style="font-style:normal;font-variant:normal;font-weight:300;font-stretch:normal;font-size:6.3499999px;font-family:Nexa;-inkscape-font-specification:'Nexa, Light';font-variant-ligatures:normal;font-variant-caps:normal;font-variant-numeric:normal;font-feature-settings:normal;text-align:start;writing-mode:lr-tb;text-anchor:start;stroke-width:0.26458332"
         id="path3725"
         inkscape:connector-curvature="0" />
      <path
         d="m 10.568397,286.53539 c 0,0.1651 0.127,0.24765 0.254,0.24765 0.12065,0 0.24765,-0.0826 0.24765,-0.24765 0,-0.1651 -0.127,-0.24765 -0.24765,-0.24765 -0.127,0 -0.254,0.0826 -0.254,0.24765 z m 0.0889,1.00965 h 0.31115 v 3.1496 h -0.31115 z"
         style="font-style:normal;font-variant:normal;font-weight:300;font-stretch:normal;font-size:6.3499999px;font-family:Nexa;-inkscape-font-specification:'Nexa, Light';font-variant-ligatures:normal;font-variant-caps:normal;font-variant-numeric:normal;font-feature-settings:normal;text-align:start;writing-mode:lr-tb;text-anchor:start;stroke-width:0.26458332"
         id="path3727"
         inkscape:connector-curvature="0" />
      <path
         d="m 15.662585,287.55774 h -0.3048 v 3.1369 h 0.31115 v -1.74625 c 0,-0.65405 0.4572,-1.143 1.1176,-1.143 0.66675,0 1.09855,0.381 1.09855,1.08585 v 1.8034 h 0.31115 v -1.80975 c 0,-0.86995 -0.57785,-1.3843 -1.41605,-1.3843 -0.43815,0.006 -0.8763,0.18415 -1.1176,0.61595 z"
         style="font-style:normal;font-variant:normal;font-weight:300;font-stretch:normal;font-size:6.3499999px;font-family:Nexa;-inkscape-font-specification:'Nexa, Light';font-variant-ligatures:normal;font-variant-caps:normal;font-variant-numeric:normal;font-feature-settings:normal;text-align:start;writing-mode:lr-tb;text-anchor:start;stroke-width:0.26458332"
         id="path3729"
         inkscape:connector-curvature="0" />
      <path
         d="m 25.022485,287.43074 -0.3048,0.3556 c -0.2413,-0.17145 -0.5715,-0.28575 -0.889,-0.28575 -0.8128,0 -1.4732,0.55245 -1.4732,1.53035 0,0.8382 0.56515,1.51765 1.4732,1.51765 0.5842,0 1.18745,0.2667 1.18745,0.9398 0,0.66675 -0.5588,0.94615 -1.18745,0.94615 -0.62865,0 -1.17475,-0.3048 -1.17475,-0.94615 h -0.31115 c 0,0.79375 0.65405,1.25095 1.4859,1.25095 0.83185,0 1.49225,-0.4064 1.49225,-1.25095 0,-0.53975 -0.3048,-0.9271 -0.85725,-1.12395 0.5207,-0.23495 0.84455,-0.7874 0.84455,-1.3335 0,-0.508 -0.1651,-0.8255 -0.38735,-1.0668 l 0.3048,-0.3556 z m -1.1938,0.381 c 0.6477,0 1.17475,0.42545 1.17475,1.2192 0,0.6477 -0.52705,1.2065 -1.17475,1.2065 -0.71755,0 -1.16205,-0.5588 -1.16205,-1.2065 0,-0.81915 0.5207,-1.2192 1.16205,-1.2192 z"
         style="font-style:normal;font-variant:normal;font-weight:300;font-stretch:normal;font-size:6.3499999px;font-family:Nexa;-inkscape-font-specification:'Nexa, Light';font-variant-ligatures:normal;font-variant-caps:normal;font-variant-numeric:normal;font-feature-settings:normal;text-align:start;writing-mode:lr-tb;text-anchor:start;stroke-width:0.26458332"
         id="path3731"
         inkscape:connector-curvature="0" />
      <path
         d="m 30.862898,290.73909 c 0.50165,0 1.04775,-0.2032 1.35255,-0.60325 l -0.22225,-0.1778 c -0.23495,0.31115 -0.71755,0.47625 -1.1303,0.47625 -0.6477,0 -1.21285,-0.42545 -1.27635,-1.16205 h 2.82575 c 0.0063,-0.0826 0.0127,-0.1651 0.0127,-0.2413 0,-1.0541 -0.74295,-1.524 -1.5621,-1.524 -0.88265,0 -1.59385,0.67945 -1.59385,1.61925 0,0.99695 0.7112,1.6129 1.59385,1.6129 z m 1.27,-1.7399 h -2.54635 c 0.06985,-0.76835 0.62865,-1.2065 1.27635,-1.2065 0.75565,0 1.26365,0.4318 1.27,1.2065 z"
         style="font-style:normal;font-variant:normal;font-weight:300;font-stretch:normal;font-size:6.3499999px;font-family:Nexa;-inkscape-font-specification:'Nexa, Light';font-variant-ligatures:normal;font-variant-caps:normal;font-variant-numeric:normal;font-feature-settings:normal;text-align:start;writing-mode:lr-tb;text-anchor:start;stroke-width:0.26458332"
         id="path3733"
         inkscape:connector-curvature="0" />
      <path
         d="m 37.02577,286.24964 h -0.31115 v 4.445 h 0.31115 z"
         style="font-style:normal;font-variant:normal;font-weight:300;font-stretch:normal;font-size:6.3499999px;font-family:Nexa;-inkscape-font-specification:'Nexa, Light';font-variant-ligatures:normal;font-variant-caps:normal;font-variant-numeric:normal;font-feature-settings:normal;text-align:start;writing-mode:lr-tb;text-anchor:start;stroke-width:0.26458332"
         id="path3735"
         inkscape:connector-curvature="0" />
      <path
         d="m 43.542952,288.12924 0.1905,-0.2032 c -0.3175,-0.29845 -0.7239,-0.4191 -1.18745,-0.4191 -0.6223,0 -1.22555,0.2667 -1.22555,0.86995 0,0.635 0.60325,0.7493 1.2192,0.8509 0.508,0.0825 1.02235,0.17145 1.02235,0.60325 0,0.51435 -0.59055,0.61595 -0.9779,0.61595 -0.4191,0 -0.889,-0.15875 -1.14935,-0.5334 l -0.2286,0.2032 c 0.27305,0.4191 0.81915,0.62865 1.3716,0.62865 0.56515,0 1.28905,-0.1905 1.28905,-0.92075 0,-0.69215 -0.7493,-0.78105 -1.2954,-0.8763 -0.40005,-0.0699 -0.9525,-0.1524 -0.9525,-0.59055 0,-0.381 0.45085,-0.5588 0.92075,-0.5588 0.36195,0 0.67945,0.0444 1.0033,0.3302 z"
         style="font-style:normal;font-variant:normal;font-weight:300;font-stretch:normal;font-size:6.3499999px;font-family:Nexa;-inkscape-font-specification:'Nexa, Light';font-variant-ligatures:normal;font-variant-caps:normal;font-variant-numeric:normal;font-feature-settings:normal;text-align:start;writing-mode:lr-tb;text-anchor:start;stroke-width:0.26458332"
         id="path3737"
         inkscape:connector-curvature="0" />
      <path
         d="m 48.355163,286.24964 h -0.3048 v 4.445 h 0.3048 v -1.5367 l 1.68275,1.5367 h 0.3937 v -0.019 l -1.77165,-1.6383 1.5875,-1.46685 v -0.0127 h -0.41275 l -1.47955,1.3716 z"
         style="font-style:normal;font-variant:normal;font-weight:300;font-stretch:normal;font-size:6.3499999px;font-family:Nexa;-inkscape-font-specification:'Nexa, Light';font-variant-ligatures:normal;font-variant-caps:normal;font-variant-numeric:normal;font-feature-settings:normal;text-align:start;writing-mode:lr-tb;text-anchor:start;stroke-width:0.26458332"
         id="path3739"
         inkscape:connector-curvature="0" />
      <path
         d="m 54.237048,286.53539 c 0,0.1651 0.127,0.24765 0.254,0.24765 0.12065,0 0.24765,-0.0826 0.24765,-0.24765 0,-0.1651 -0.127,-0.24765 -0.24765,-0.24765 -0.127,0 -0.254,0.0826 -0.254,0.24765 z m 0.0889,1.00965 h 0.31115 v 3.1496 h -0.31115 z"
         style="font-style:normal;font-variant:normal;font-weight:300;font-stretch:normal;font-size:6.3499999px;font-family:Nexa;-inkscape-font-specification:'Nexa, Light';font-variant-ligatures:normal;font-variant-caps:normal;font-variant-numeric:normal;font-feature-settings:normal;text-align:start;writing-mode:lr-tb;text-anchor:start;stroke-width:0.26458332"
         id="path3741"
         inkscape:connector-curvature="0" />
    </g>
    <text
       xml:space="preserve"
       style="font-style:normal;font-variant:normal;font-weight:300;font-stretch:normal;font-size:10.58333302px;line-height:1.25;font-family:Nexa;-inkscape-font-specification:'Nexa, Light';font-variant-ligatures:normal;font-variant-caps:normal;font-variant-numeric:normal;font-feature-settings:normal;text-align:start;letter-spacing:0px;word-spacing:0px;writing-mode:lr-tb;text-anchor:start;fill:#000000;fill-opacity:1;stroke:none;stroke-width:0.26458332"
       x="94.872025"
       y="175.29167"
       id="text3723"><tspan
         sodipodi:role="line"
         id="tspan3721"
         x="94.872025"
         y="184.5542"
         style="stroke-width:0.26458332" /></text>
    <path
       style="fill:#000000;stroke-width:0.1;stroke-miterlimit:4;stroke-dasharray:none"
       d="m 48.558194,292.766 c -0.247977,0.008 -0.484502,-0.019 -0.705651,-0.0758 -0.306585,-0.0791 -0.643498,-0.27989 -0.853995,-0.50922 -0.647251,-0.70515 -0.662148,-1.93116 -0.0396,-3.25994 0.260894,-0.55683 0.544677,-0.99432 0.993427,-1.53141 l 0.151269,-0.181 -0.04684,-0.0803 c -0.131921,-0.22624 -0.04903,-0.51341 0.190517,-0.66017 0.06856,-0.0422 0.09915,-0.0494 0.220087,-0.0511 0.124319,-0.003 0.152155,0.004 0.241601,0.0503 l 0.101079,0.053 0.18698,-0.15125 c 0.84693,-0.68485 1.805297,-1.13351 2.661463,-1.24597 0.215501,-0.0281 0.489785,-0.0315 0.69374,-0.009 0.842898,0.0983 1.413707,0.58918 1.620993,1.39414 0.04552,0.17672 0.05001,0.22219 0.05531,0.56112 0.0062,0.41566 -0.01661,0.60775 -0.119042,0.98892 -0.213347,0.79406 -0.613903,1.54669 -1.235017,2.32063 -0.153124,0.19077 -0.672453,0.73446 -0.827061,0.86581 l -0.09363,0.0798 0.0026,0.1356 c 0.0023,0.12383 -0.0023,0.14234 -0.05091,0.21295 -0.07612,0.11025 -0.179382,0.16654 -0.311022,0.16946 -0.06626,0.002 -0.127498,-0.01 -0.16504,-0.027 l -0.0597,-0.0289 -0.175879,0.11444 c -0.844492,0.54942 -1.691576,0.84632 -2.435514,0.86429 z m -0.06082,-0.12355 c 0.235274,-0.005 0.501097,-0.0293 0.679243,-0.071 0.553994,-0.128 1.079,-0.35047 1.612223,-0.6832 0.308343,-0.19243 0.290777,-0.17518 0.253709,-0.24941 -0.04557,-0.0912 -0.04346,-0.2476 0.0043,-0.3437 0.04612,-0.0921 0.167954,-0.18471 0.266132,-0.20226 0.07974,-0.0139 0.202512,6.7e-4 0.18948,0.0218 -0.0047,0.01 0.002,0.0111 0.01458,0.007 0.013,-0.008 0.05785,0.0139 0.09964,0.0432 l 0.07594,0.0529 0.08088,-0.0681 c 0.140878,-0.11886 0.535775,-0.52597 0.716695,-0.73889 0.780098,-0.91796 1.284561,-1.95528 1.406034,-2.89111 0.03139,-0.24184 0.02405,-0.66526 -0.01513,-0.86913 -0.07528,-0.39182 -0.231467,-0.68759 -0.49964,-0.9462 -0.285802,-0.27557 -0.598875,-0.41829 -1.036232,-0.47237 -0.116798,-0.0142 -0.526427,-0.0103 -0.658632,0.008 -0.832843,0.10548 -1.781879,0.55161 -2.633506,1.23797 l -0.167919,0.13533 0.03793,0.0815 c 0.111946,0.24114 -0.01189,0.55145 -0.259984,0.6514 -0.11012,0.044 -0.315005,0.0362 -0.402453,-0.0153 l -0.06112,-0.0361 -0.07797,0.0843 c -0.201072,0.21738 -0.465954,0.57112 -0.679291,0.90713 -0.838078,1.31999 -1.053206,2.7048 -0.552643,3.55744 0.110486,0.18817 0.402559,0.46985 0.594651,0.57344 0.173748,0.0938 0.429569,0.17678 0.647785,0.21052 0.09367,0.0144 0.223826,0.0198 0.364996,0.0177 z m 4.887171,-4.74665 c -0.08382,0.002 -0.169768,-0.0368 -0.225003,-0.11537 -0.0353,-0.05 -0.04181,-0.0771 -0.03706,-0.15374 0.0065,-0.10799 0.0473,-0.17534 0.133421,-0.22125 0.128772,-0.0686 0.292556,-0.0184 0.352996,0.10876 0.0191,0.0403 0.03508,0.0928 0.03556,0.11688 4.08e-4,0.0245 -0.0136,0.0775 -0.03125,0.11812 -0.04147,0.0958 -0.133667,0.14588 -0.228645,0.1466 z"
       id="path910"
       inkscape:connector-curvature="0" />
    <text
       xml:space="preserve"
       style="font-style:normal;font-weight:normal;font-size:10.58333302px;line-height:1.25;font-family:sans-serif;letter-spacing:0px;word-spacing:0px;fill:#000000;fill-opacity:1;stroke:none;stroke-width:0.26458332"
       x="30.502659"
       y="128.61159"
       id="text3715-3"><tspan
         sodipodi:role="line"
         id="tspan3713-6"
         x="30.502659"
         y="137.97536"
         style="stroke-width:0.26458332" /></text>
    <text
       xml:space="preserve"
       style="font-style:normal;font-variant:normal;font-weight:300;font-stretch:normal;font-size:10.58333302px;line-height:1.25;font-family:Nexa;-inkscape-font-specification:'Nexa, Light';font-variant-ligatures:normal;font-variant-caps:normal;font-variant-numeric:normal;font-feature-settings:normal;text-align:start;letter-spacing:0px;word-spacing:0px;writing-mode:lr-tb;text-anchor:start;fill:#000000;fill-opacity:1;stroke:none;stroke-width:0.26458332"
       x="95.136612"
       y="158.09375"
       id="text3723-0"><tspan
         sodipodi:role="line"
         id="tspan3721-9"
         x="95.136612"
         y="167.35628"
         style="stroke-width:0.26458332" /></text>
  </g>
</svg>
