<?xml version="1.0" encoding="UTF-8" standalone="no"?>
<!-- Created with Inkscape (http://www.inkscape.org/) -->

<svg
   xmlns:dc="http://purl.org/dc/elements/1.1/"
   xmlns:cc="http://creativecommons.org/ns#"
   xmlns:rdf="http://www.w3.org/1999/02/22-rdf-syntax-ns#"
   xmlns:svg="http://www.w3.org/2000/svg"
   xmlns="http://www.w3.org/2000/svg"
   xmlns:sodipodi="http://sodipodi.sourceforge.net/DTD/sodipodi-0.dtd"
   xmlns:inkscape="http://www.inkscape.org/namespaces/inkscape"
   version="1.1"
   id="svg9789"
   width="3840"
   height="1738"
   viewBox="0 0 3840 1738"
   sodipodi:docname="watch_box.svg"
   inkscape:version="0.92.4 (unknown)">
  <metadata
     id="metadata9795">
    <rdf:RDF>
      <cc:Work
         rdf:about="">
        <dc:format>image/svg+xml</dc:format>
        <dc:type
           rdf:resource="http://purl.org/dc/dcmitype/StillImage" />
        <dc:title></dc:title>
      </cc:Work>
    </rdf:RDF>
  </metadata>
  <defs
     id="defs9793">
    <inkscape:path-effect
       effect="bspline"
       id="path-effect10172"
       is_visible="true"
       weight="33.333333"
       steps="2"
       helper_size="0"
       apply_no_weight="true"
       apply_with_weight="true"
       only_selected="false" />
  </defs>
  <sodipodi:namedview
     pagecolor="#ffffff"
     bordercolor="#666666"
     borderopacity="1"
     objecttolerance="10"
     gridtolerance="10"
     guidetolerance="10"
     inkscape:pageopacity="0"
     inkscape:pageshadow="2"
     inkscape:window-width="1853"
     inkscape:window-height="1025"
     id="namedview9791"
     showgrid="false"
     inkscape:zoom="1.4145833"
     inkscape:cx="1318.8505"
     inkscape:cy="1373.0116"
     inkscape:window-x="67"
     inkscape:window-y="685"
     inkscape:window-maximized="1"
     inkscape:current-layer="svg9789" />
  <path
     style="fill:#000000;stroke-width:1.4641;stroke:#ff0000;stroke-opacity:1"
     d=""
     id="path9885"
     inkscape:connector-curvature="0" />
  <path
     style="fill:none;stroke:#ff0000;stroke-width:0.37795276;stroke-linecap:butt;stroke-linejoin:miter;stroke-opacity:1;stroke-miterlimit:4;stroke-dasharray:none"
     d="m 213.49043,211.0486 917.58467,-34.63918 v 35.52283 h -11.3107 v 35.52283 h 11.6642 v 34.99263 h -11.6642 v 34.99264 h 12.0176 v 35.3461 h -12.0176 v 34.99263 h 11.8409 v 35.16937 h -11.6642 v 35.16937 h 12.0177 v 34.99263 h -12.1944 v 35.16937 H 213.31922 V 492.7006 h 11.99687 v -34.86588 h -11.62196 v -34.99085 h 11.62196 v -35.24079 h -11.74693 v -35.11582 h 11.74693 v -35.36575 h -11.74693 v -34.99085 h 11.8719 v -35.11582 h -11.8719 V 211.0486 Z"
     id="path10186"
     inkscape:connector-curvature="0" />
  <path
     style="fill:none;stroke:#ff0000;stroke-width:0.37795276;stroke-linecap:butt;stroke-linejoin:miter;stroke-opacity:1;stroke-miterlimit:4;stroke-dasharray:none"
     d="m 257.55766,487.07707 h 43.86353 v 12.12183 h -43.9885 v -12.12183 z"
     id="path10188"
     inkscape:connector-curvature="0" />
  <path
     style="fill:none;stroke:#ff0000;stroke-width:0.37795276;stroke-linecap:butt;stroke-linejoin:miter;stroke-opacity:1;stroke-miterlimit:4;stroke-dasharray:none"
     d="m 345.53465,486.95211 h 43.73857 v 12.24679 h -43.73857 z"
     id="path10190"
     inkscape:connector-curvature="0" />
  <path
     style="fill:none;stroke:#ff0000;stroke-width:0.37795276;stroke-linecap:butt;stroke-linejoin:miter;stroke-opacity:1;stroke-miterlimit:4;stroke-dasharray:none"
     d="m 433.38668,487.07707 h 42.4889 v 11.99687 h -42.8638 v -11.99687 z"
     id="path10192"
     inkscape:connector-curvature="0" />
  <path
     style="fill:none;stroke:#ff0000;stroke-width:0.37795276;stroke-linecap:butt;stroke-linejoin:miter;stroke-opacity:1;stroke-miterlimit:4;stroke-dasharray:none"
     d="m 519.61414,487.07707 h 43.86353 v 11.8719 h -43.86353 z"
     id="path10194"
     inkscape:connector-curvature="0" />
  <path
     style="fill:none;stroke:#ff0000;stroke-width:0.37795276;stroke-linecap:butt;stroke-linejoin:miter;stroke-miterlimit:4;stroke-dasharray:none;stroke-opacity:1"
     d="m 607.34644,487.07707 h 43.86353 v 11.8719 h -43.86353 z"
     id="path10194-7"
     inkscape:connector-curvature="0" />
  <path
     style="fill:none;stroke:#ff0000;stroke-width:0.37795275;stroke-linecap:butt;stroke-linejoin:miter;stroke-miterlimit:4;stroke-dasharray:none;stroke-opacity:1"
     d="m 695.02356,486.88962 h 43.86353 v 11.8719 h -43.86353 z"
     id="path10194-7-6"
     inkscape:connector-curvature="0" />
  <path
     style="fill:none;stroke:#ff0000;stroke-width:0.37795275;stroke-linecap:butt;stroke-linejoin:miter;stroke-miterlimit:4;stroke-dasharray:none;stroke-opacity:1"
     d="m 781.91077,486.88962 h 43.86353 v 11.8719 h -43.86353 z"
     id="path10194-7-6-5"
     inkscape:connector-curvature="0" />
  <path
     style="fill:none;stroke:#ff0000;stroke-width:0.37795275;stroke-linecap:butt;stroke-linejoin:miter;stroke-miterlimit:4;stroke-dasharray:none;stroke-opacity:1"
     d="m 869.7743,486.88962 h 43.86353 v 11.8719 H 869.7743 Z"
     id="path10194-7-6-5-6"
     inkscape:connector-curvature="0" />
  <path
     style="fill:none;stroke:#ff0000;stroke-width:0.37795275;stroke-linecap:butt;stroke-linejoin:miter;stroke-miterlimit:4;stroke-dasharray:none;stroke-opacity:1"
     d="m 957.63783,486.88962 h 43.86357 v 11.8719 h -43.86357 z"
     id="path10194-7-6-5-6-9"
     inkscape:connector-curvature="0" />
  <path
     style="fill:none;stroke:#ff0000;stroke-width:0.37795275;stroke-linecap:butt;stroke-linejoin:miter;stroke-miterlimit:4;stroke-dasharray:none;stroke-opacity:1"
     d="m 1045.5014,486.88962 h 43.8636 v 11.8719 h -43.8636 z"
     id="path10194-7-6-5-6-9-3"
     inkscape:connector-curvature="0" />
  <path
     style="fill:none;stroke:#ff0000;stroke-width:0.37795276;stroke-linecap:butt;stroke-linejoin:miter;stroke-opacity:1;stroke-miterlimit:4;stroke-dasharray:none"
     d="m 1188.3358,176.40942 h 544.6833 v 36.05302 h 12.0177 v 34.99264 h -12.3711 v 34.99263 h 12.0177 v 35.3461 h -12.0177 v 34.63918 h 12.3711 v 35.34609 h -12.7246 v 34.99264 h 12.3712 v 34.99264 h -12.0177 v 34.99263 h 12.0177 v 35.3461 H 1177.025 v -35.3461 h 12.0177 v -34.99263 h -12.3711 v -35.16937 h 12.1944 v -35.16937 h -11.841 v -35.16936 h 11.841 v -34.99264 h -12.0177 v -35.16937 h 12.0177 v -34.99263 h -12.0177 v -35.16937 h 12.0177 v -35.52283 z"
     id="path10305"
     inkscape:connector-curvature="0" />
  <path
     style="fill:none;stroke:#ff0000;stroke-width:0.37795276;stroke-linecap:butt;stroke-linejoin:miter;stroke-opacity:1;stroke-miterlimit:4;stroke-dasharray:none"
     d="m 1239.9411,487.10162 h 63.0044 v 11.84094 h -62.916 v -11.84094 z"
     id="path10322"
     inkscape:connector-curvature="0" />
  <path
     style="fill:none;stroke:#ff0000;stroke-width:0.37795275;stroke-linecap:butt;stroke-linejoin:miter;stroke-miterlimit:4;stroke-dasharray:none;stroke-opacity:1"
     d="m 1366.1011,487.10162 h 63.0044 v 11.84094 h -62.916 v -11.84094 z"
     id="path10322-4"
     inkscape:connector-curvature="0" />
  <path
     style="fill:none;stroke:#ff0000;stroke-width:0.37795275;stroke-linecap:butt;stroke-linejoin:miter;stroke-miterlimit:4;stroke-dasharray:none;stroke-opacity:1"
     d="m 1493.1055,487.10162 h 63.0044 v 11.84094 h -62.916 v -11.84094 z"
     id="path10322-4-5"
     inkscape:connector-curvature="0" />
  <path
     style="fill:none;stroke:#ff0000;stroke-width:0.37795275;stroke-linecap:butt;stroke-linejoin:miter;stroke-miterlimit:4;stroke-dasharray:none;stroke-opacity:1"
     d="m 1618.9759,487.10162 h 63.0044 v 11.84094 h -62.916 v -11.84094 z"
     id="path10322-4-2"
     inkscape:connector-curvature="0" />
  <path
     style="fill:none;stroke:#ff0000;stroke-width:0.37795276;stroke-linecap:butt;stroke-linejoin:miter;stroke-opacity:1;stroke-miterlimit:4;stroke-dasharray:none"
     d="m 225.31609,576.42871 h 32.24157 v -11.8719 h 43.86353 v 11.99687 h 43.9885 v -11.74693 h 43.9885 v 11.62196 h 43.86353 v -11.74693 h 42.36392 v 11.8719 h 43.9885 v -11.74693 h 43.9885 v 11.8719 h 43.86353 v -11.99687 h 43.86353 v 11.74693 h 43.9885 v -11.8719 h 43.86353 v 11.99687 h 42.73883 v -11.8719 h 43.61359 v 11.74693 h 44.11347 v -11.74693 h 43.86353 v 11.74693 h 43.9885 v -11.74693 h 43.73855 v 11.8719 h 44.1135 v -11.8719 h 43.8635 v 11.74693 h 30.617 v 51.36157 h 11.622 v 62.85857 h -11.622 v 62.98353 h 11.7469 v 62.85856 h -11.7469 v 63.1085 h 11.7469 v 62.98353 h -11.7469 v 62.85853 h 11.7469 v 62.9836 h -11.7469 v 51.2366 h -32.3665 v 11.8719 h -42.239 v -11.8719 h -43.9885 v 11.7469 h -43.98849 v -11.8719 h -43.86353 v 11.8719 h -43.86353 v -11.7469 h -43.9885 v 11.8719 h -43.73856 v -11.8719 h -44.11347 v 11.7469 H 695.3182 v -11.8719 h -44.11347 v 11.9969 h -43.73856 v -11.8719 h -43.86353 v 11.8719 h -44.11347 v -11.9969 h -43.86353 v 11.9969 h -43.9885 v -11.8719 h -43.9885 v 11.7469 h -42.23895 v -11.7469 h -44.11347 v 11.7469 h -43.73856 v -11.8719 H 225.31609 V 1068.55 h -11.62196 v -62.9835 h 11.74693 v -63.10849 h -11.8719 v -62.85857 h 11.8719 v -62.98353 h -11.8719 v -63.1085 h 11.74693 v -62.98353 h -11.8719 v -62.7336 h 11.99687 v -51.36157 z"
     id="path10369"
     inkscape:connector-curvature="0" />
  <path
     style="fill:none;stroke:#ff0000;stroke-width:0.37795275;stroke-linecap:butt;stroke-linejoin:miter;stroke-miterlimit:4;stroke-dasharray:none;stroke-opacity:1"
     d="m 213.49043,1191.0486 917.58477,-34.6392 v 35.5228 h -11.3107 v 35.5228 h 11.6641 v 34.9927 h -11.6641 v 34.9926 h 12.0175 v 35.3461 h -12.0175 v 34.9926 h 11.8408 v 35.1694 h -11.6641 v 35.1694 h 12.0177 v 34.9926 h -12.1944 v 35.1694 H 213.31922 v -35.5792 h 11.99686 v -34.8659 h -11.62195 v -34.9909 h 11.62195 v -35.2408 h -11.74692 v -35.1158 h 11.74692 v -35.3657 h -11.74692 v -34.9909 h 11.87189 v -35.1158 h -11.87189 v -35.9662 z"
     id="path10186-5"
     inkscape:connector-curvature="0" />
  <path
     style="fill:none;stroke:#ff0000;stroke-width:0.37795275;stroke-linecap:butt;stroke-linejoin:miter;stroke-miterlimit:4;stroke-dasharray:none;stroke-opacity:1"
     d="m 257.55765,1467.077 h 43.86353 v 12.1219 h -43.9885 v -12.1219 z"
     id="path10188-4"
     inkscape:connector-curvature="0" />
  <path
     style="fill:none;stroke:#ff0000;stroke-width:0.37795275;stroke-linecap:butt;stroke-linejoin:miter;stroke-miterlimit:4;stroke-dasharray:none;stroke-opacity:1"
     d="m 345.53465,1466.9521 h 43.73857 v 12.2468 h -43.73857 z"
     id="path10190-7"
     inkscape:connector-curvature="0" />
  <path
     style="fill:none;stroke:#ff0000;stroke-width:0.37795275;stroke-linecap:butt;stroke-linejoin:miter;stroke-miterlimit:4;stroke-dasharray:none;stroke-opacity:1"
     d="m 433.38668,1467.077 h 42.4889 v 11.9969 h -42.8638 v -11.9969 z"
     id="path10192-4"
     inkscape:connector-curvature="0" />
  <path
     style="fill:none;stroke:#ff0000;stroke-width:0.37795275;stroke-linecap:butt;stroke-linejoin:miter;stroke-miterlimit:4;stroke-dasharray:none;stroke-opacity:1"
     d="m 519.61414,1467.077 h 43.86353 v 11.8719 h -43.86353 z"
     id="path10194-4"
     inkscape:connector-curvature="0" />
  <path
     style="fill:none;stroke:#ff0000;stroke-width:0.37795275;stroke-linecap:butt;stroke-linejoin:miter;stroke-miterlimit:4;stroke-dasharray:none;stroke-opacity:1"
     d="m 607.34644,1467.077 h 43.86353 v 11.8719 h -43.86353 z"
     id="path10194-7-3"
     inkscape:connector-curvature="0" />
  <path
     style="fill:none;stroke:#ff0000;stroke-width:0.37795275;stroke-linecap:butt;stroke-linejoin:miter;stroke-miterlimit:4;stroke-dasharray:none;stroke-opacity:1"
     d="m 695.02356,1466.8896 h 43.86353 v 11.8719 h -43.86353 z"
     id="path10194-7-6-0"
     inkscape:connector-curvature="0" />
  <path
     style="fill:none;stroke:#ff0000;stroke-width:0.37795275;stroke-linecap:butt;stroke-linejoin:miter;stroke-miterlimit:4;stroke-dasharray:none;stroke-opacity:1"
     d="m 781.91077,1466.8896 h 43.86353 v 11.8719 h -43.86353 z"
     id="path10194-7-6-5-7"
     inkscape:connector-curvature="0" />
  <path
     style="fill:none;stroke:#ff0000;stroke-width:0.37795275;stroke-linecap:butt;stroke-linejoin:miter;stroke-miterlimit:4;stroke-dasharray:none;stroke-opacity:1"
     d="m 869.7743,1466.8896 h 43.86353 v 11.8719 H 869.7743 Z"
     id="path10194-7-6-5-6-8"
     inkscape:connector-curvature="0" />
  <path
     style="fill:none;stroke:#ff0000;stroke-width:0.37795275;stroke-linecap:butt;stroke-linejoin:miter;stroke-miterlimit:4;stroke-dasharray:none;stroke-opacity:1"
     d="m 957.63783,1466.8896 h 43.86357 v 11.8719 h -43.86357 z"
     id="path10194-7-6-5-6-9-6"
     inkscape:connector-curvature="0" />
  <path
     style="fill:none;stroke:#ff0000;stroke-width:0.37795275;stroke-linecap:butt;stroke-linejoin:miter;stroke-miterlimit:4;stroke-dasharray:none;stroke-opacity:1"
     d="m 1045.5015,1466.8896 h 43.8635 v 11.8719 h -43.8635 z"
     id="path10194-7-6-5-6-9-3-8"
     inkscape:connector-curvature="0" />
  <path
     style="fill:none;stroke:#ff0000;stroke-width:0.37795275;stroke-linecap:butt;stroke-linejoin:miter;stroke-miterlimit:4;stroke-dasharray:none;stroke-opacity:1"
     d="m 1188.3358,176.40942 h 544.6833 v 36.05302 h 12.0177 v 34.99264 h -12.3711 v 34.99263 h 12.0177 v 35.3461 h -12.0177 v 34.63918 h 12.3711 v 35.34609 h -12.7246 v 34.99264 h 12.3712 v 34.99264 h -12.0177 v 34.99263 h 12.0177 v 35.3461 H 1177.025 v -35.3461 h 12.0177 v -34.99263 h -12.3711 v -35.16937 h 12.1944 v -35.16937 h -11.841 v -35.16936 h 11.841 v -34.99264 h -12.0177 v -35.16937 h 12.0177 v -34.99263 h -12.0177 v -35.16937 h 12.0177 v -35.52283 z"
     id="path10305-8"
     inkscape:connector-curvature="0" />
  <path
     style="fill:none;stroke:#ff0000;stroke-width:0.37795275;stroke-linecap:butt;stroke-linejoin:miter;stroke-miterlimit:4;stroke-dasharray:none;stroke-opacity:1"
     d="m 1239.9411,487.10162 h 63.0044 v 11.84094 h -62.916 v -11.84094 z"
     id="path10322-43"
     inkscape:connector-curvature="0" />
  <path
     style="fill:none;stroke:#ff0000;stroke-width:0.37795275;stroke-linecap:butt;stroke-linejoin:miter;stroke-miterlimit:4;stroke-dasharray:none;stroke-opacity:1"
     d="m 1366.1011,487.10162 h 63.0044 v 11.84094 h -62.916 v -11.84094 z"
     id="path10322-4-1"
     inkscape:connector-curvature="0" />
  <path
     style="fill:none;stroke:#ff0000;stroke-width:0.37795275;stroke-linecap:butt;stroke-linejoin:miter;stroke-miterlimit:4;stroke-dasharray:none;stroke-opacity:1"
     d="m 1493.1055,487.10162 h 63.0044 v 11.84094 h -62.916 v -11.84094 z"
     id="path10322-4-5-4"
     inkscape:connector-curvature="0" />
  <path
     style="fill:none;stroke:#ff0000;stroke-width:0.37795275;stroke-linecap:butt;stroke-linejoin:miter;stroke-miterlimit:4;stroke-dasharray:none;stroke-opacity:1"
     d="m 1618.9759,487.10162 h 63.0044 v 11.84094 h -62.916 v -11.84094 z"
     id="path10322-4-2-9"
     inkscape:connector-curvature="0" />
  <path
     style="fill:none;stroke:#ff0000;stroke-width:0.37795276;stroke-linecap:butt;stroke-linejoin:miter;stroke-opacity:1;stroke-miterlimit:4;stroke-dasharray:none"
     d="m 1188.5125,564.50957 h 544.6834 v 35.69956 h 11.8409 v 34.99263 h -11.8409 v 34.99264 h 11.6642 v 35.16937 h -11.6642 v 35.3461 h 11.8409 v 34.99263 h -12.0177 v 35.16937 h 11.841 v 33.93225 h -11.6642 v 34.99264 h -544.5066 v -35.3461 h -11.4875 v -34.63917 h 11.8409 v -35.52283 h -12.0177 v -34.10899 h 11.841 v -35.87628 h -11.6642 v -34.28572 h 11.6642 v -35.52283 h -12.0177 v -34.63917 h 11.841 v -35.3461 z"
     id="path10485"
     inkscape:connector-curvature="0" />
  <path
     style="fill:none;stroke:#ff0000;stroke-width:0.37795276;stroke-linecap:butt;stroke-linejoin:miter;stroke-opacity:1;stroke-miterlimit:4;stroke-dasharray:none"
     d="m 1239.9411,838.53019 h 63.0044 v 12.01767 h -63.0044 z"
     id="path10487"
     inkscape:connector-curvature="0" />
  <path
     style="fill:none;stroke:#ff0000;stroke-width:0.37795275;stroke-linecap:butt;stroke-linejoin:miter;stroke-miterlimit:4;stroke-dasharray:none;stroke-opacity:1"
     d="m 1366.0005,838.53019 h 63.0044 v 12.01767 h -63.0044 z"
     id="path10487-0"
     inkscape:connector-curvature="0" />
  <path
     style="fill:none;stroke:#ff0000;stroke-width:0.37795275;stroke-linecap:butt;stroke-linejoin:miter;stroke-miterlimit:4;stroke-dasharray:none;stroke-opacity:1"
     d="m 1491.6509,838.53019 h 63.0044 v 12.01767 h -63.0044 z"
     id="path10487-0-4"
     inkscape:connector-curvature="0" />
  <path
     style="fill:none;stroke:#ff0000;stroke-width:0.37795275;stroke-linecap:butt;stroke-linejoin:miter;stroke-miterlimit:4;stroke-dasharray:none;stroke-opacity:1"
     d="m 1619.3013,838.53019 h 63.0044 v 12.01767 h -63.0044 z"
     id="path10487-0-4-8"
     inkscape:connector-curvature="0" />
</svg>
