<?xml version="1.0" encoding="UTF-8" standalone="no"?>
<!-- Created with Inkscape (http://www.inkscape.org/) -->

<svg
   xmlns:dc="http://purl.org/dc/elements/1.1/"
   xmlns:cc="http://creativecommons.org/ns#"
   xmlns:rdf="http://www.w3.org/1999/02/22-rdf-syntax-ns#"
   xmlns:svg="http://www.w3.org/2000/svg"
   xmlns="http://www.w3.org/2000/svg"
   xmlns:sodipodi="http://sodipodi.sourceforge.net/DTD/sodipodi-0.dtd"
   xmlns:inkscape="http://www.inkscape.org/namespaces/inkscape"
   width="600mm"
   height="300mm"
   viewBox="0 0 600 300"
   version="1.1"
   id="svg1602"
   inkscape:version="0.92.4 (unknown)"
   sodipodi:docname="watch_box_2.svg">
  <defs
     id="defs1596" />
  <sodipodi:namedview
     id="base"
     pagecolor="#ffffff"
     bordercolor="#666666"
     borderopacity="1.0"
     inkscape:pageopacity="0.0"
     inkscape:pageshadow="2"
     inkscape:zoom="0.7"
     inkscape:cx="488.89641"
     inkscape:cy="571.48934"
     inkscape:document-units="mm"
     inkscape:current-layer="layer1"
     showgrid="true"
     inkscape:window-width="1853"
     inkscape:window-height="1025"
     inkscape:window-x="67"
     inkscape:window-y="27"
     inkscape:window-maximized="1"
     inkscape:snap-text-baseline="true">
    <inkscape:grid
       type="xygrid"
       id="grid2447"
       units="mm"
       dotted="false"
       spacingx="0.099999999"
       spacingy="0.099999999" />
  </sodipodi:namedview>
  <metadata
     id="metadata1599">
    <rdf:RDF>
      <cc:Work
         rdf:about="">
        <dc:format>image/svg+xml</dc:format>
        <dc:type
           rdf:resource="http://purl.org/dc/dcmitype/StillImage" />
        <dc:title></dc:title>
      </cc:Work>
    </rdf:RDF>
  </metadata>
  <g
     inkscape:label="Layer 1"
     inkscape:groupmode="layer"
     id="layer1"
     transform="translate(0,3)">
    <path
       inkscape:connector-curvature="0"
       d="m 151.26031,279.98688 h 7.5 c -0.0547,0 -0.10156,-0.043 -0.10156,-0.10157 v 3 c 0,0.0547 0.043,0.10155 0.10156,0.10155 h 6 c 0.0547,0 0.10156,-0.043 0.10156,-0.10155 v -3 c 0,0.0547 -0.043,0.10157 -0.10156,0.10157 h 6 c -0.0547,0 -0.10156,-0.043 -0.10156,-0.10157 v 3 c 0,0.0547 0.043,0.10155 0.10156,0.10155 h 6 c 0.0547,0 0.10156,-0.043 0.10156,-0.10155 v -3 c 0,0.0547 -0.043,0.10157 -0.10156,0.10157 h 6 c -0.0547,0 -0.10156,-0.043 -0.10156,-0.10157 v 3 c 0,0.0547 0.043,0.10155 0.10156,0.10155 h 6 c 0.0547,0 0.10156,-0.043 0.10156,-0.10155 v -3 c 0,0.0547 -0.043,0.10157 -0.10156,0.10157 h 6 c -0.0547,0 -0.10156,-0.043 -0.10156,-0.10157 v 3 c 0,0.0547 0.043,0.10155 0.10156,0.10155 h 6 c 0.0547,0 0.10156,-0.043 0.10156,-0.10155 v -3 c 0,0.0547 -0.043,0.10157 -0.10156,0.10157 h 6 c -0.0547,0 -0.10156,-0.043 -0.10156,-0.10157 v 3 c 0,0.0547 0.043,0.10155 0.10156,0.10155 h 6 c 0.0547,0 0.10157,-0.043 0.10157,-0.10155 v -3 c 0,0.0547 -0.043,0.10157 -0.10157,0.10157 h 6 c -0.0547,0 -0.10156,-0.043 -0.10156,-0.10157 v 3 c 0,0.0547 0.043,0.10155 0.10156,0.10155 h 6 c 0.0547,0 0.10157,-0.043 0.10157,-0.10155 v -3 c 0,0.0547 -0.043,0.10157 -0.10157,0.10157 h 6 c -0.0547,0 -0.10156,-0.043 -0.10156,-0.10157 v 3 c 0,0.0547 0.043,0.10155 0.10156,0.10155 h 6 c 0.0547,0 0.10157,-0.043 0.10157,-0.10155 v -3 c 0,0.0547 -0.043,0.10157 -0.10157,0.10157 h 6 c -0.0547,0 -0.10156,-0.043 -0.10156,-0.10157 v 3 c 0,0.0547 0.043,0.10155 0.10156,0.10155 h 6 c 0.0547,0 0.10157,-0.043 0.10157,-0.10155 v -3 c 0,0.0547 -0.043,0.10157 -0.10157,0.10157 h 6 c -0.0547,0 -0.10156,-0.043 -0.10156,-0.10157 v 3 c 0,0.0547 0.043,0.10155 0.10156,0.10155 h 6 c 0.0547,0 0.10156,-0.043 0.10156,-0.10155 v -3 c 0,0.0547 -0.043,0.10157 -0.10156,0.10157 h 6 c -0.0547,0 -0.10156,-0.043 -0.10156,-0.10157 v 3 c 0,0.0547 0.043,0.10155 0.10156,0.10155 h 6 c 0.0547,0 0.10156,-0.043 0.10156,-0.10155 v -3 c 0,0.0547 -0.043,0.10157 -0.10156,0.10157 h 7.50001 c 0.0547,0 0.10155,-0.043 0.10155,-0.10157 v 0 -11 c 0,0.0547 -0.043,0.10155 -0.10155,0.10155 h 3.00001 c 0.0547,0 0.10154,-0.043 0.10154,-0.10155 v -6 c 0,-0.0547 -0.043,-0.10156 -0.10154,-0.10156 h -3.00001 c 0.0547,0 0.10155,0.043 0.10155,0.10156 v -6 c 0,0.0547 -0.043,0.10156 -0.10155,0.10156 h 3.00001 c 0.0547,0 0.10154,-0.043 0.10154,-0.10156 v -6 c 0,-0.0547 -0.043,-0.10157 -0.10154,-0.10157 h -3.00001 c 0.0547,0 0.10155,0.043 0.10155,0.10157 v -6 c 0,0.0547 -0.043,0.10156 -0.10155,0.10156 h 3.00001 c 0.0547,0 0.10154,-0.043 0.10154,-0.10156 v -6 c 0,-0.0547 -0.043,-0.10157 -0.10154,-0.10157 h -3.00001 c 0.0547,0 0.10155,0.043 0.10155,0.10157 v -6 c 0,0.0547 -0.043,0.10156 -0.10155,0.10156 h 3.00001 c 0.0547,0 0.10154,-0.043 0.10154,-0.10156 v -6 c 0,-0.0547 -0.043,-0.10157 -0.10154,-0.10157 h -3.00001 c 0.0547,0 0.10155,0.043 0.10155,0.10157 v -6 c 0,0.0547 -0.043,0.10156 -0.10155,0.10156 h 3.00001 c 0.0547,0 0.10154,-0.043 0.10154,-0.10156 v -6 c 0,-0.0547 -0.043,-0.10157 -0.10154,-0.10157 h -3.00001 c 0.0547,0 0.10155,0.043 0.10155,0.10157 v -6 c 0,0.0547 -0.043,0.10156 -0.10155,0.10156 h 3.00001 c 0.0547,0 0.10154,-0.043 0.10154,-0.10156 v -6 c 0,-0.0547 -0.043,-0.10157 -0.10154,-0.10157 h -3.00001 c 0.0547,0 0.10155,0.043 0.10155,0.10157 v -6 c 0,0.0547 -0.043,0.10156 -0.10155,0.10156 h 3.00001 c 0.0547,0 0.10154,-0.043 0.10154,-0.10156 v -6 c 0,-0.0547 -0.043,-0.10157 -0.10154,-0.10157 h -3.00001 c 0.0547,0 0.10155,0.043 0.10155,0.10157 v -6 c 0,0.0547 -0.043,0.10156 -0.10155,0.10156 h 3.00001 c 0.0547,0 0.10154,-0.043 0.10154,-0.10156 v -6 c 0,-0.0547 -0.043,-0.10157 -0.10154,-0.10157 h -3.00001 c 0.0547,0 0.10155,0.043 0.10155,0.10157 v -6 c 0,0.0547 -0.043,0.10156 -0.10155,0.10156 h 3.00001 c 0.0547,0 0.10154,-0.043 0.10154,-0.10156 v -6 c 0,-0.0547 -0.043,-0.10157 -0.10154,-0.10157 h -3.00001 c 0.0547,0 0.10155,0.043 0.10155,0.10157 v -6 c 0,0.0547 -0.043,0.10156 -0.10155,0.10156 h 3.00001 c 0.0547,0 0.10154,-0.043 0.10154,-0.10156 v -6 c 0,-0.0547 -0.043,-0.10157 -0.10154,-0.10157 h -3.00001 c 0.0547,0 0.10155,0.043 0.10155,0.10157 v -6 c 0,0.0547 -0.043,0.10156 -0.10155,0.10156 h 3.00001 c 0.0547,0 0.10154,-0.043 0.10154,-0.10156 v -6 c 0,-0.0547 -0.043,-0.10156 -0.10154,-0.10156 h -3.00001 c 0.0547,0 0.10155,0.043 0.10155,0.10156 v -6 c 0,0.0547 -0.043,0.10156 -0.10155,0.10156 h 3.00001 c 0.0547,0 0.10154,-0.043 0.10154,-0.10156 v -6 c 0,-0.0547 -0.043,-0.10156 -0.10154,-0.10156 h -3.00001 c 0.0547,0 0.10155,0.043 0.10155,0.10156 v -6 c 0,0.0547 -0.043,0.10156 -0.10155,0.10156 h 3.00001 c 0.0547,0 0.10154,-0.043 0.10154,-0.10156 v -6 c 0,-0.0547 -0.043,-0.10156 -0.10154,-0.10156 h -3.00001 c 0.0547,0 0.10155,0.043 0.10155,0.10156 v -6 c 0,0.0547 -0.043,0.10156 -0.10155,0.10156 h 3.00001 c 0.0547,0 0.10154,-0.043 0.10154,-0.10156 v -6 c 0,-0.0547 -0.043,-0.10156 -0.10154,-0.10156 h -3.00001 c 0.0547,0 0.10155,0.043 0.10155,0.10156 v -6 c 0,0.0547 -0.043,0.10156 -0.10155,0.10156 h 3.00001 c 0.0547,0 0.10154,-0.043 0.10154,-0.10156 v -5.999997 c 0,-0.0547 -0.043,-0.101561 -0.10154,-0.101561 h -3.00001 c 0.0547,0 0.10155,0.043 0.10155,0.101561 v -6.000001 c 0,0.05469 -0.043,0.10156 -0.10155,0.10156 h 3.00001 c 0.0547,0 0.10154,-0.043 0.10154,-0.10156 v -5.999999 c 0,-0.0547 -0.043,-0.10156 -0.10154,-0.10156 h -3.00001 c 0.0547,0 0.10155,0.043 0.10155,0.10156 v -6.000001 c 0,0.05469 -0.043,0.10156 -0.10155,0.10156 h 3.00001 c 0.0547,0 0.10154,-0.043 0.10154,-0.10156 V 70.88531 c 0,-0.0547 -0.043,-0.101557 -0.10154,-0.101557 h -3.00001 c 0.0547,0 0.10155,0.043 0.10155,0.101557 v -5.999998 c 0,0.05469 -0.043,0.10156 -0.10155,0.10156 h 3.00001 c 0.0547,0 0.10154,-0.043 0.10154,-0.10156 v -6.000001 c 0,-0.0547 -0.043,-0.101561 -0.10154,-0.101561 h -3.00001 c 0.0547,0 0.10155,0.043 0.10155,0.101561 v -5.999999 c 0,0.05469 -0.043,0.10156 -0.10155,0.10156 h 3.00001 c 0.0547,0 0.10154,-0.043 0.10154,-0.10156 v -6.000001 c 0,-0.0547 -0.043,-0.10156 -0.10154,-0.10156 h -3.00001 c 0.0547,0 0.10155,0.043 0.10155,0.10156 V 35.885312 c 0,-0.0547 -0.043,-0.101561 -0.10155,-0.101561 v 0 h -7.50001 c 0.0547,0 0.10156,0.043 0.10156,0.101561 v -3 c 0,-0.0547 -0.043,-0.10156 -0.10156,-0.10156 h -6 c -0.0547,0 -0.10156,0.043 -0.10156,0.10156 v 3 c 0,-0.0547 0.043,-0.101561 0.10156,-0.101561 h -6 c 0.0547,0 0.10156,0.043 0.10156,0.101561 v -3 c 0,-0.0547 -0.043,-0.10156 -0.10156,-0.10156 h -6 c -0.0547,0 -0.10156,0.043 -0.10156,0.10156 v 3 c 0,-0.0547 0.043,-0.101561 0.10156,-0.101561 h -6 c 0.0547,0 0.10157,0.043 0.10157,0.101561 v -3 c 0,-0.0547 -0.043,-0.10156 -0.10157,-0.10156 h -6 c -0.0547,0 -0.10156,0.043 -0.10156,0.10156 v 3 c 0,-0.0547 0.043,-0.101561 0.10156,-0.101561 h -6 c 0.0547,0 0.10157,0.043 0.10157,0.101561 v -3 c 0,-0.0547 -0.043,-0.10156 -0.10157,-0.10156 h -6 c -0.0547,0 -0.10156,0.043 -0.10156,0.10156 v 3 c 0,-0.0547 0.043,-0.101561 0.10156,-0.101561 h -6 c 0.0547,0 0.10157,0.043 0.10157,0.101561 v -3 c 0,-0.0547 -0.043,-0.10156 -0.10157,-0.10156 h -6 c -0.0547,0 -0.10156,0.043 -0.10156,0.10156 v 3 c 0,-0.0547 0.043,-0.101561 0.10156,-0.101561 h -6 c 0.0547,0 0.10157,0.043 0.10157,0.101561 v -3 c 0,-0.0547 -0.043,-0.10156 -0.10157,-0.10156 h -6 c -0.0547,0 -0.10156,0.043 -0.10156,0.10156 v 3 c 0,-0.0547 0.043,-0.101561 0.10156,-0.101561 h -6 c 0.0547,0 0.10156,0.043 0.10156,0.101561 v -3 c 0,-0.0547 -0.043,-0.10156 -0.10156,-0.10156 h -6 c -0.0547,0 -0.10156,0.043 -0.10156,0.10156 v 3 c 0,-0.0547 0.043,-0.101561 0.10156,-0.101561 h -6 c 0.0547,0 0.10156,0.043 0.10156,0.101561 v -3 c 0,-0.0547 -0.043,-0.10156 -0.10156,-0.10156 h -6 c -0.0547,0 -0.10156,0.043 -0.10156,0.10156 v 3 c 0,-0.0547 0.043,-0.101561 0.10156,-0.101561 h -6 c 0.0547,0 0.10156,0.043 0.10156,0.101561 v -3 c 0,-0.0547 -0.043,-0.10156 -0.10156,-0.10156 h -6 c -0.0547,0 -0.10156,0.043 -0.10156,0.10156 v 3 c 0,-0.0547 0.043,-0.101561 0.10156,-0.101561 h -6 c 0.0547,0 0.10156,0.043 0.10156,0.101561 v -3 c 0,-0.0547 -0.043,-0.10156 -0.10156,-0.10156 h -6 c -0.0547,0 -0.10156,0.043 -0.10156,0.10156 v 3 c 0,-0.0547 0.043,-0.101561 0.10156,-0.101561 h -7.5 c -0.0547,0 -0.10156,0.043 -0.10156,0.101561 v 0 10.999999 c 0,-0.0547 0.043,-0.10156 0.10156,-0.10156 h -3 c -0.0547,0 -0.10156,0.043 -0.10156,0.10156 v 6.000001 c 0,0.05469 0.043,0.10156 0.10156,0.10156 h 3 c -0.0547,0 -0.10156,-0.043 -0.10156,-0.10156 v 5.999999 c 0,-0.0547 0.043,-0.101561 0.10156,-0.101561 h -3 c -0.0547,0 -0.10156,0.043 -0.10156,0.101561 v 6.000001 c 0,0.05469 0.043,0.10156 0.10156,0.10156 h 3 c -0.0547,0 -0.10156,-0.043 -0.10156,-0.10156 v 5.999998 c 0,-0.0547 0.043,-0.101557 0.10156,-0.101557 h -3 c -0.0547,0 -0.10156,0.043 -0.10156,0.101557 v 6.000002 c 0,0.05469 0.043,0.10156 0.10156,0.10156 h 3 c -0.0547,0 -0.10156,-0.043 -0.10156,-0.10156 v 6.000001 c 0,-0.0547 0.043,-0.10156 0.10156,-0.10156 h -3 c -0.0547,0 -0.10156,0.043 -0.10156,0.10156 v 5.999999 c 0,0.05469 0.043,0.10156 0.10156,0.10156 h 3 c -0.0547,0 -0.10156,-0.043 -0.10156,-0.10156 v 6.000001 c 0,-0.0547 0.043,-0.101561 0.10156,-0.101561 h -3 c -0.0547,0 -0.10156,0.043 -0.10156,0.101561 v 5.999997 c 0,0.0547 0.043,0.10156 0.10156,0.10156 h 3 c -0.0547,0 -0.10156,-0.043 -0.10156,-0.10156 v 6 c 0,-0.0547 0.043,-0.10156 0.10156,-0.10156 h -3 c -0.0547,0 -0.10156,0.043 -0.10156,0.10156 v 6 c 0,0.0547 0.043,0.10156 0.10156,0.10156 h 3 c -0.0547,0 -0.10156,-0.043 -0.10156,-0.10156 v 6 c 0,-0.0547 0.043,-0.10156 0.10156,-0.10156 h -3 c -0.0547,0 -0.10156,0.043 -0.10156,0.10156 v 6 c 0,0.0547 0.043,0.10156 0.10156,0.10156 h 3 c -0.0547,0 -0.10156,-0.043 -0.10156,-0.10156 v 6 c 0,-0.0547 0.043,-0.10156 0.10156,-0.10156 h -3 c -0.0547,0 -0.10156,0.043 -0.10156,0.10156 v 6 c 0,0.0547 0.043,0.10156 0.10156,0.10156 h 3 c -0.0547,0 -0.10156,-0.043 -0.10156,-0.10156 v 6 c 0,-0.0547 0.043,-0.10156 0.10156,-0.10156 h -3 c -0.0547,0 -0.10156,0.043 -0.10156,0.10156 v 6 c 0,0.0547 0.043,0.10156 0.10156,0.10156 h 3 c -0.0547,0 -0.10156,-0.043 -0.10156,-0.10156 v 6 c 0,-0.0547 0.043,-0.10157 0.10156,-0.10157 h -3 c -0.0547,0 -0.10156,0.043 -0.10156,0.10157 v 6 c 0,0.0547 0.043,0.10156 0.10156,0.10156 h 3 c -0.0547,0 -0.10156,-0.043 -0.10156,-0.10156 v 6 c 0,-0.0547 0.043,-0.10157 0.10156,-0.10157 h -3 c -0.0547,0 -0.10156,0.043 -0.10156,0.10157 v 6 c 0,0.0547 0.043,0.10156 0.10156,0.10156 h 3 c -0.0547,0 -0.10156,-0.043 -0.10156,-0.10156 v 6 c 0,-0.0547 0.043,-0.10157 0.10156,-0.10157 h -3 c -0.0547,0 -0.10156,0.043 -0.10156,0.10157 v 6 c 0,0.0547 0.043,0.10156 0.10156,0.10156 h 3 c -0.0547,0 -0.10156,-0.043 -0.10156,-0.10156 v 6 c 0,-0.0547 0.043,-0.10157 0.10156,-0.10157 h -3 c -0.0547,0 -0.10156,0.043 -0.10156,0.10157 v 6 c 0,0.0547 0.043,0.10156 0.10156,0.10156 h 3 c -0.0547,0 -0.10156,-0.043 -0.10156,-0.10156 v 6 c 0,-0.0547 0.043,-0.10157 0.10156,-0.10157 h -3 c -0.0547,0 -0.10156,0.043 -0.10156,0.10157 v 6 c 0,0.0547 0.043,0.10156 0.10156,0.10156 h 3 c -0.0547,0 -0.10156,-0.043 -0.10156,-0.10156 v 6 c 0,-0.0547 0.043,-0.10157 0.10156,-0.10157 h -3 c -0.0547,0 -0.10156,0.043 -0.10156,0.10157 v 6 c 0,0.0547 0.043,0.10156 0.10156,0.10156 h 3 c -0.0547,0 -0.10156,-0.043 -0.10156,-0.10156 v 6 c 0,-0.0547 0.043,-0.10157 0.10156,-0.10157 h -3 c -0.0547,0 -0.10156,0.043 -0.10156,0.10157 v 6 c 0,0.0547 0.043,0.10156 0.10156,0.10156 h 3 c -0.0547,0 -0.10156,-0.043 -0.10156,-0.10156 v 6 c 0,-0.0547 0.043,-0.10157 0.10156,-0.10157 h -3 c -0.0547,0 -0.10156,0.043 -0.10156,0.10157 v 6 c 0,0.0547 0.043,0.10156 0.10156,0.10156 h 3 c -0.0547,0 -0.10156,-0.043 -0.10156,-0.10156 v 6 c 0,-0.0547 0.043,-0.10157 0.10156,-0.10157 h -3 c -0.0547,0 -0.10156,0.043 -0.10156,0.10157 v 6 c 0,0.0547 0.043,0.10156 0.10156,0.10156 h 3 c -0.0547,0 -0.10156,-0.043 -0.10156,-0.10156 v 6 c 0,-0.0547 0.043,-0.10156 0.10156,-0.10156 h -3 c -0.0547,0 -0.10156,0.043 -0.10156,0.10156 v 6 c 0,0.0547 0.043,0.10155 0.10156,0.10155 h 3 c -0.0547,0 -0.10156,-0.043 -0.10156,-0.10155 v 11 c 0,0.0547 0.043,0.10157 0.10156,0.10157 v 0"
       style="fill:none;stroke:#ff0000;stroke-width:0.1;stroke-linecap:butt;stroke-linejoin:miter;stroke-miterlimit:8.99494934;stroke-dasharray:none;stroke-opacity:1"
       id="path1340" />
    <path
       inkscape:connector-curvature="0"
       d="m 14.561117,279.98688 h 7.5 c -0.05469,0 -0.101562,-0.043 -0.101562,-0.10157 v 3 c 0,0.0547 0.04297,0.10155 0.101562,0.10155 h 6 c 0.05469,0 0.101563,-0.043 0.101563,-0.10155 l -1e-6,-3 c 0,0.0547 -0.04297,0.10157 -0.101562,0.10157 h 6 c -0.05469,0 -0.101562,-0.043 -0.101562,-0.10157 v 3 c 0,0.0547 0.04297,0.10155 0.101562,0.10155 h 5.999999 c 0.05469,0 0.101563,-0.043 0.101563,-0.10155 v -3 c 0,0.0547 -0.04297,0.10157 -0.101563,0.10157 h 6.000002 c -0.05469,0 -0.101563,-0.043 -0.101563,-0.10157 v 3 c 0,0.0547 0.04297,0.10155 0.101563,0.10155 h 5.999998 c 0.05469,0 0.101563,-0.043 0.101563,-0.10155 v -3 c 0,0.0547 -0.04297,0.10157 -0.101563,0.10157 h 6.000002 c -0.05469,0 -0.101563,-0.043 -0.101563,-0.10157 v 3 c 0,0.0547 0.04297,0.10155 0.101563,0.10155 h 6.000001 c 0.05469,0 0.10156,-0.043 0.10156,-0.10155 v -3 c 0,0.0547 -0.04297,0.10157 -0.10156,0.10157 h 5.999998 c -0.05469,0 -0.101563,-0.043 -0.101563,-0.10157 v 3 c 0,0.0547 0.04297,0.10155 0.101563,0.10155 h 6.000002 c 0.05469,0 0.10156,-0.043 0.10156,-0.10155 v -3 c 0,0.0547 -0.04297,0.10157 -0.10156,0.10157 h 5.999998 c -0.05469,0 -0.10156,-0.043 -0.10156,-0.10157 v 3 c 0,0.0547 0.04297,0.10155 0.10156,0.10155 h 6.000001 c 0.05469,0 0.101561,-0.043 0.101561,-0.10155 v -3 c 0,0.0547 -0.04297,0.10157 -0.101561,0.10157 h 5.999999 c -0.05469,0 -0.10156,-0.043 -0.10156,-0.10157 v 3 c 0,0.0547 0.04297,0.10155 0.10156,0.10155 h 6.000003 c 0.0547,0 0.10156,-0.043 0.10156,-0.10155 v -3 c 0,0.0547 -0.043,0.10157 -0.10156,0.10157 h 6 c -0.0547,0 -0.10156,-0.043 -0.10156,-0.10157 v 3 c 0,0.0547 0.043,0.10155 0.10156,0.10155 h 5.99999 c 0.0547,0 0.10157,-0.043 0.10157,-0.10155 v -3 c 0,0.0547 -0.043,0.10157 -0.10157,0.10157 h 6.00001 c -0.0547,0 -0.10157,-0.043 -0.10157,-0.10157 v 3 c 0,0.0547 0.043,0.10155 0.10157,0.10155 h 5.99999 c 0.0547,0 0.10156,-0.043 0.10156,-0.10155 v -3 c 0,0.0547 -0.043,0.10157 -0.10156,0.10157 h 6.00001 c -0.0547,0 -0.10157,-0.043 -0.10157,-0.10157 v 3 c 0,0.0547 0.043,0.10155 0.10157,0.10155 h 5.99999 c 0.0547,0 0.10156,-0.043 0.10156,-0.10155 v -3 c 0,0.0547 -0.043,0.10157 -0.10156,0.10157 h 7.5 c 0.0547,0 0.10156,-0.043 0.10156,-0.10157 v 0 -11 c 0,0.0547 -0.043,0.10155 -0.10156,0.10155 h 3 c 0.0547,0 0.10156,-0.043 0.10156,-0.10155 v -6 c 0,-0.0547 -0.043,-0.10156 -0.10156,-0.10156 h -3 c 0.0547,0 0.10156,0.043 0.10156,0.10156 v -6 c 0,0.0547 -0.043,0.10156 -0.10156,0.10156 h 3 c 0.0547,0 0.10156,-0.043 0.10156,-0.10156 v -6 c 0,-0.0547 -0.043,-0.10157 -0.10156,-0.10157 h -3 c 0.0547,0 0.10156,0.043 0.10156,0.10157 v -6 c 0,0.0547 -0.043,0.10156 -0.10156,0.10156 h 3 c 0.0547,0 0.10156,-0.043 0.10156,-0.10156 v -6 c 0,-0.0547 -0.043,-0.10157 -0.10156,-0.10157 h -3 c 0.0547,0 0.10156,0.043 0.10156,0.10157 v -6 c 0,0.0547 -0.043,0.10156 -0.10156,0.10156 h 3 c 0.0547,0 0.10156,-0.043 0.10156,-0.10156 v -6 c 0,-0.0547 -0.043,-0.10157 -0.10156,-0.10157 h -3 c 0.0547,0 0.10156,0.043 0.10156,0.10157 v -6 c 0,0.0547 -0.043,0.10156 -0.10156,0.10156 h 3 c 0.0547,0 0.10156,-0.043 0.10156,-0.10156 v -6 c 0,-0.0547 -0.043,-0.10157 -0.10156,-0.10157 h -3 c 0.0547,0 0.10156,0.043 0.10156,0.10157 v -6 c 0,0.0547 -0.043,0.10156 -0.10156,0.10156 h 3 c 0.0547,0 0.10156,-0.043 0.10156,-0.10156 v -6 c 0,-0.0547 -0.043,-0.10157 -0.10156,-0.10157 h -3 c 0.0547,0 0.10156,0.043 0.10156,0.10157 v -6 c 0,0.0547 -0.043,0.10156 -0.10156,0.10156 h 3 c 0.0547,0 0.10156,-0.043 0.10156,-0.10156 v -6 c 0,-0.0547 -0.043,-0.10157 -0.10156,-0.10157 h -3 c 0.0547,0 0.10156,0.043 0.10156,0.10157 v -6 c 0,0.0547 -0.043,0.10156 -0.10156,0.10156 h 3 c 0.0547,0 0.10156,-0.043 0.10156,-0.10156 v -6 c 0,-0.0547 -0.043,-0.10157 -0.10156,-0.10157 h -3 c 0.0547,0 0.10156,0.043 0.10156,0.10157 v -6 c 0,0.0547 -0.043,0.10156 -0.10156,0.10156 h 3 c 0.0547,0 0.10156,-0.043 0.10156,-0.10156 v -6 c 0,-0.0547 -0.043,-0.10157 -0.10156,-0.10157 h -3 c 0.0547,0 0.10156,0.043 0.10156,0.10157 v -6 c 0,0.0547 -0.043,0.10156 -0.10156,0.10156 h 3 c 0.0547,0 0.10156,-0.043 0.10156,-0.10156 v -6 c 0,-0.0547 -0.043,-0.10157 -0.10156,-0.10157 h -3 c 0.0547,0 0.10156,0.043 0.10156,0.10157 v -6 c 0,0.0547 -0.043,0.10156 -0.10156,0.10156 h 3 c 0.0547,0 0.10156,-0.043 0.10156,-0.10156 v -6 c 0,-0.0547 -0.043,-0.10156 -0.10156,-0.10156 h -3 c 0.0547,0 0.10156,0.043 0.10156,0.10156 v -6 c 0,0.0547 -0.043,0.10156 -0.10156,0.10156 h 3 c 0.0547,0 0.10156,-0.043 0.10156,-0.10156 v -6 c 0,-0.0547 -0.043,-0.10156 -0.10156,-0.10156 h -3 c 0.0547,0 0.10156,0.043 0.10156,0.10156 v -6 c 0,0.0547 -0.043,0.10156 -0.10156,0.10156 h 3 c 0.0547,0 0.10156,-0.043 0.10156,-0.10156 v -6 c 0,-0.0547 -0.043,-0.10156 -0.10156,-0.10156 h -3 c 0.0547,0 0.10156,0.043 0.10156,0.10156 v -6 c 0,0.0547 -0.043,0.10156 -0.10156,0.10156 h 3 c 0.0547,0 0.10156,-0.043 0.10156,-0.10156 v -6 c 0,-0.0547 -0.043,-0.10156 -0.10156,-0.10156 h -3 c 0.0547,0 0.10156,0.043 0.10156,0.10156 v -6 c 0,0.0547 -0.043,0.10156 -0.10156,0.10156 h 3 c 0.0547,0 0.10156,-0.043 0.10156,-0.10156 v -5.999997 c 0,-0.0547 -0.043,-0.101561 -0.10156,-0.101561 h -3 c 0.0547,0 0.10156,0.043 0.10156,0.101561 v -6.000001 c 0,0.05469 -0.043,0.10156 -0.10156,0.10156 h 3 c 0.0547,0 0.10156,-0.043 0.10156,-0.10156 v -5.999999 c 0,-0.0547 -0.043,-0.10156 -0.10156,-0.10156 h -3 c 0.0547,0 0.10156,0.043 0.10156,0.10156 v -6.000001 c 0,0.05469 -0.043,0.10156 -0.10156,0.10156 h 3 c 0.0547,0 0.10156,-0.043 0.10156,-0.10156 V 70.88531 c 0,-0.0547 -0.043,-0.101557 -0.10156,-0.101557 h -3 c 0.0547,0 0.10156,0.043 0.10156,0.101557 v -5.999998 c 0,0.05469 -0.043,0.10156 -0.10156,0.10156 h 3 c 0.0547,0 0.10156,-0.043 0.10156,-0.10156 v -6.000001 c 0,-0.0547 -0.043,-0.101561 -0.10156,-0.101561 h -3 c 0.0547,0 0.10156,0.043 0.10156,0.101561 v -5.999999 c 0,0.05469 -0.043,0.10156 -0.10156,0.10156 h 3 c 0.0547,0 0.10156,-0.043 0.10156,-0.10156 v -6.000001 c 0,-0.0547 -0.043,-0.10156 -0.10156,-0.10156 h -3 c 0.0547,0 0.10156,0.043 0.10156,0.10156 V 35.885312 c 0,-0.0547 -0.043,-0.101561 -0.10156,-0.101561 v 0 h -7.5 c 0.0547,0 0.10156,0.043 0.10156,0.101561 v -3 c 0,-0.0547 -0.043,-0.10156 -0.10156,-0.10156 h -5.99999 c -0.0547,0 -0.10157,0.043 -0.10157,0.10156 v 3 c 0,-0.0547 0.043,-0.101561 0.10157,-0.101561 h -6.00001 c 0.0547,0 0.10156,0.043 0.10156,0.101561 v -3 c 0,-0.0547 -0.043,-0.10156 -0.10156,-0.10156 h -5.99999 c -0.0547,0 -0.10157,0.043 -0.10157,0.10156 v 3 c 0,-0.0547 0.043,-0.101561 0.10157,-0.101561 h -6.00001 c 0.0547,0 0.10157,0.043 0.10157,0.101561 v -3 c 0,-0.0547 -0.043,-0.10156 -0.10157,-0.10156 h -5.99999 c -0.0547,0 -0.10157,0.043 -0.10157,0.10156 v 3 c 0,-0.0547 0.043,-0.101561 0.10157,-0.101561 h -6 c 0.0547,0 0.10156,0.043 0.10156,0.101561 v -3 c 0,-0.0547 -0.043,-0.10156 -0.10156,-0.10156 h -6.000003 c -0.05469,0 -0.101563,0.043 -0.101563,0.10156 v 3 c 0,-0.0547 0.04297,-0.101561 0.101563,-0.101561 h -5.999999 c 0.05469,0 0.101561,0.043 0.101561,0.101561 v -3 c 0,-0.0547 -0.04297,-0.10156 -0.101561,-0.10156 h -6.000001 c -0.05469,0 -0.101563,0.043 -0.101563,0.10156 v 3 c 0,-0.0547 0.04297,-0.101561 0.101563,-0.101561 h -5.999998 c 0.05469,0 0.10156,0.043 0.10156,0.101561 v -3 c 0,-0.0547 -0.04297,-0.10156 -0.10156,-0.10156 h -6.000002 c -0.05469,0 -0.101563,0.043 -0.101563,0.10156 v 3 c 0,-0.0547 0.04297,-0.101561 0.101563,-0.101561 h -5.999998 c 0.05469,0 0.10156,0.043 0.10156,0.101561 v -3 c 0,-0.0547 -0.04297,-0.10156 -0.10156,-0.10156 h -6.000001 c -0.05469,0 -0.101563,0.043 -0.101563,0.10156 v 3 c 0,-0.0547 0.04297,-0.101561 0.101563,-0.101561 h -6.000002 c 0.05469,0 0.101563,0.043 0.101563,0.101561 v -3 c 0,-0.0547 -0.04297,-0.10156 -0.101563,-0.10156 h -5.999998 c -0.05469,0 -0.101563,0.043 -0.101563,0.10156 v 3 c 0,-0.0547 0.04297,-0.101561 0.101563,-0.101561 h -6.000002 c 0.05469,0 0.101563,0.043 0.101563,0.101561 v -3 c 0,-0.0547 -0.04297,-0.10156 -0.101563,-0.10156 h -5.999999 c -0.05469,0 -0.101563,0.043 -0.101563,0.10156 v 3 c 0,-0.0547 0.04297,-0.101561 0.101563,-0.101561 h -6 c 0.05469,0 0.101562,0.043 0.101562,0.101561 v -3 c 0,-0.0547 -0.04297,-0.10156 -0.101562,-0.10156 h -6 c -0.05469,0 -0.101563,0.043 -0.101563,0.10156 v 3 c 0,-0.0547 0.04297,-0.101561 0.101563,-0.101561 h -7.5 c -0.05469,0 -0.101563,0.043 -0.101563,0.101561 v 0 10.999999 c 0,-0.0547 0.04297,-0.10156 0.101563,-0.10156 h -3 c -0.05469,0 -0.101563,0.043 -0.101563,0.10156 v 6.000001 c 0,0.05469 0.04297,0.10156 0.101563,0.10156 h 3 c -0.05469,0 -0.101563,-0.043 -0.101563,-0.10156 v 5.999999 c 0,-0.0547 0.04297,-0.101561 0.101563,-0.101561 h -3 c -0.05469,0 -0.101563,0.043 -0.101563,0.101561 v 6.000001 c 0,0.05469 0.04297,0.10156 0.101563,0.10156 h 3 c -0.05469,0 -0.101563,-0.043 -0.101563,-0.10156 v 5.999998 c 0,-0.0547 0.04297,-0.101557 0.101563,-0.101557 h -3 c -0.05469,0 -0.101563,0.043 -0.101563,0.101557 v 6.000002 c 0,0.05469 0.04297,0.10156 0.101563,0.10156 h 3 c -0.05469,0 -0.101563,-0.043 -0.101563,-0.10156 v 6.000001 c 0,-0.0547 0.04297,-0.10156 0.101563,-0.10156 h -3 c -0.05469,0 -0.101563,0.043 -0.101563,0.10156 v 5.999999 c 0,0.05469 0.04297,0.10156 0.101563,0.10156 h 3 c -0.05469,0 -0.101563,-0.043 -0.101563,-0.10156 v 6.000001 c 0,-0.0547 0.04297,-0.101561 0.101563,-0.101561 h -3 c -0.05469,0 -0.101563,0.043 -0.101563,0.101561 v 5.999997 c 0,0.0547 0.04297,0.10156 0.101563,0.10156 h 3 c -0.05469,0 -0.101563,-0.043 -0.101563,-0.10156 v 6 c 0,-0.0547 0.04297,-0.10156 0.101563,-0.10156 h -3 c -0.05469,0 -0.101563,0.043 -0.101563,0.10156 v 6 c 0,0.0547 0.04297,0.10156 0.101563,0.10156 h 3 c -0.05469,0 -0.101563,-0.043 -0.101563,-0.10156 v 6 c 0,-0.0547 0.04297,-0.10156 0.101563,-0.10156 h -3 c -0.05469,0 -0.101563,0.043 -0.101563,0.10156 v 6 c 0,0.0547 0.04297,0.10156 0.101563,0.10156 h 3 c -0.05469,0 -0.101563,-0.043 -0.101563,-0.10156 v 6 c 0,-0.0547 0.04297,-0.10156 0.101563,-0.10156 h -3 c -0.05469,0 -0.101563,0.043 -0.101563,0.10156 v 6 c 0,0.0547 0.04297,0.10156 0.101563,0.10156 h 3 c -0.05469,0 -0.101563,-0.043 -0.101563,-0.10156 v 6 c 0,-0.0547 0.04297,-0.10156 0.101563,-0.10156 h -3 c -0.05469,0 -0.101563,0.043 -0.101563,0.10156 v 6 c 0,0.0547 0.04297,0.10156 0.101563,0.10156 h 3 c -0.05469,0 -0.101563,-0.043 -0.101563,-0.10156 v 6 c 0,-0.0547 0.04297,-0.10157 0.101563,-0.10157 h -3 c -0.05469,0 -0.101563,0.043 -0.101563,0.10157 v 6 c 0,0.0547 0.04297,0.10156 0.101563,0.10156 h 3 c -0.05469,0 -0.101563,-0.043 -0.101563,-0.10156 v 6 c 0,-0.0547 0.04297,-0.10157 0.101563,-0.10157 h -3 c -0.05469,0 -0.101563,0.043 -0.101563,0.10157 v 6 c 0,0.0547 0.04297,0.10156 0.101563,0.10156 h 3 c -0.05469,0 -0.101563,-0.043 -0.101563,-0.10156 v 6 c 0,-0.0547 0.04297,-0.10157 0.101563,-0.10157 h -3 c -0.05469,0 -0.101563,0.043 -0.101563,0.10157 v 6 c 0,0.0547 0.04297,0.10156 0.101563,0.10156 h 3 c -0.05469,0 -0.101563,-0.043 -0.101563,-0.10156 v 6 c 0,-0.0547 0.04297,-0.10157 0.101563,-0.10157 h -3 c -0.05469,0 -0.101563,0.043 -0.101563,0.10157 v 6 c 0,0.0547 0.04297,0.10156 0.101563,0.10156 h 3 c -0.05469,0 -0.101563,-0.043 -0.101563,-0.10156 v 6 c 0,-0.0547 0.04297,-0.10157 0.101563,-0.10157 h -3 c -0.05469,0 -0.101563,0.043 -0.101563,0.10157 v 6 c 0,0.0547 0.04297,0.10156 0.101563,0.10156 h 3 c -0.05469,0 -0.101563,-0.043 -0.101563,-0.10156 v 6 c 0,-0.0547 0.04297,-0.10157 0.101563,-0.10157 h -3 c -0.05469,0 -0.101563,0.043 -0.101563,0.10157 v 6 c 0,0.0547 0.04297,0.10156 0.101563,0.10156 h 3 c -0.05469,0 -0.101563,-0.043 -0.101563,-0.10156 v 6 c 0,-0.0547 0.04297,-0.10157 0.101563,-0.10157 h -3 c -0.05469,0 -0.101563,0.043 -0.101563,0.10157 v 6 c 0,0.0547 0.04297,0.10156 0.101563,0.10156 h 3 c -0.05469,0 -0.101563,-0.043 -0.101563,-0.10156 v 6 c 0,-0.0547 0.04297,-0.10157 0.101563,-0.10157 h -3 c -0.05469,0 -0.101563,0.043 -0.101563,0.10157 v 6 c 0,0.0547 0.04297,0.10156 0.101563,0.10156 h 3 c -0.05469,0 -0.101563,-0.043 -0.101563,-0.10156 v 6 c 0,-0.0547 0.04297,-0.10157 0.101563,-0.10157 h -3 c -0.05469,0 -0.101563,0.043 -0.101563,0.10157 v 6 c 0,0.0547 0.04297,0.10156 0.101563,0.10156 h 3 c -0.05469,0 -0.101563,-0.043 -0.101563,-0.10156 v 6 c 0,-0.0547 0.04297,-0.10156 0.101563,-0.10156 h -3 c -0.05469,0 -0.101563,0.043 -0.101563,0.10156 v 6 c 0,0.0547 0.04297,0.10155 0.101563,0.10155 h 3 c -0.05469,0 -0.101563,-0.043 -0.101563,-0.10155 l 10e-7,11 c 0,0.0547 0.04297,0.10157 0.101562,0.10157 v 0"
       style="fill:none;stroke:#ff0000;stroke-width:0.1;stroke-linecap:butt;stroke-linejoin:miter;stroke-miterlimit:8.99494934;stroke-dasharray:none;stroke-opacity:1"
       id="path1342" />
    <path
       d="m 19.204818,26.787278 c 0,0.317256 -0.09417,0.625941 -0.261086,0.891752 -0.171205,0.265809 -0.41517,0.475886 -0.701938,0.608791 -0.286768,0.132905 -0.603493,0.175776 -0.915942,0.132905 -0.312446,-0.04287 -0.603494,-0.180066 -0.843181,-0.385854 -0.239685,-0.205788 -0.410888,-0.475888 -0.50077,-0.780283 -0.08988,-0.304396 -0.08988,-0.625941 0,-0.926049 0.08988,-0.304397 0.261085,-0.574494 0.50077,-0.780285 0.239687,-0.205787 0.530735,-0.338693 0.843181,-0.385852 0.312449,-0.04287 0.629174,0 0.915942,0.132905 0.286768,0.132904 0.530733,0.34298 0.701938,0.608793 0.171204,0.26581 0.261086,0.574494 0.261086,0.89175"
       style="fill:none;stroke:#ff0000;stroke-width:0.1;stroke-linecap:butt;stroke-linejoin:miter;stroke-miterlimit:8.99494934;stroke-dasharray:none;stroke-opacity:1"
       id="path1344"
       inkscape:connector-curvature="0" />
    <path
       inkscape:connector-curvature="0"
       d="m 17.561112,31.287676 c 0.808592,0 1.601561,-0.210936 2.300781,-0.617185 0.699218,-0.402344 1.28125,-0.984375 1.683593,-1.683595 0.402343,-0.699219 0.617187,-1.492187 0.617187,-2.300781 0,-0.808594 -0.210937,-1.601563 -0.617187,-2.300781 -0.402343,-0.699219 -0.984375,-1.28125 -1.683593,-1.683594 -0.69922,-0.402344 -1.492189,-0.617188 -2.300781,-0.617188 0.05469,0 0.101561,0.04297 0.101561,0.101563 v -3 c 0,-0.05469 -0.04297,-0.101563 -0.101561,-0.101563 h -3.000001 c 0.05469,0 0.101562,0.04297 0.101562,0.101563 v -3 c 0,0.05469 -0.04297,0.101562 -0.101562,0.101562 h 3.000001 c 0.05469,0 0.101561,-0.04297 0.101561,-0.101562 v -3 c 0,-0.05469 -0.04297,-0.101563 -0.101561,-0.101563 h -3.000001 c -0.542969,0 -1.078125,0.144532 -1.550782,0.414063 -0.472656,0.273437 -0.863281,0.664062 -1.132812,1.132812 -0.273438,0.472657 -0.414063,1.003907 -0.414063,1.550782 v 9 c 0,1.070312 0.28125,2.121093 0.816407,3.050781 0.535156,0.925783 1.304687,1.699221 2.234375,2.234375 0.925781,0.535157 1.980468,0.816406 3.050781,0.816406 M 19.264236,2.5845525"
       style="fill:none;stroke:#ff0000;stroke-width:0.1;stroke-linecap:butt;stroke-linejoin:miter;stroke-miterlimit:8.99494934;stroke-dasharray:none;stroke-opacity:1"
       id="path1346" />
    <path
       d="m 17.620519,7.0849644 c 0,-0.3172571 0.08988,-0.625941 0.261086,-0.8917513 0.171204,-0.2658107 0.415169,-0.4758861 0.701937,-0.6087912 0.286766,-0.1329063 0.603493,-0.1757777 0.915942,-0.1329063 0.312447,0.042872 0.603494,0.1800658 0.84318,0.3858551 0.239686,0.2057893 0.41089,0.4758868 0.500772,0.7802812 0.08988,0.3043967 0.08988,0.6259422 0,0.9260506 -0.08988,0.3043956 -0.261086,0.5744931 -0.500772,0.7802825 -0.239686,0.2057892 -0.530733,0.3386932 -0.84318,0.385854 -0.312449,0.042872 -0.629176,0 -0.915942,-0.1329053 C 18.296774,8.4440286 18.052809,8.233953 17.881605,7.9681415 17.710401,7.7023311 17.620519,7.3936471 17.620519,7.07639"
       style="fill:none;stroke:#ff0000;stroke-width:0.1;stroke-linecap:butt;stroke-linejoin:miter;stroke-miterlimit:8.99494934;stroke-dasharray:none;stroke-opacity:1"
       id="path1348"
       inkscape:connector-curvature="0" />
    <path
       inkscape:connector-curvature="0"
       d="m 19.264223,2.5845645 c -0.808593,0 -1.601562,0.210937 -2.300781,0.6171868 -0.699219,0.402344 -1.28125,0.984375 -1.683594,1.683594 -0.402343,0.699219 -0.617187,1.4921871 -0.617187,2.3007811 0,0.8085939 0.210937,1.6015631 0.617187,2.3007809 0.402344,0.6992187 0.984375,1.2812497 1.683594,1.6835937 0.699219,0.402344 1.492188,0.617188 2.300781,0.617188 -0.05469,0 -0.101562,-0.04297 -0.101562,-0.101563 v 3 c 0,0.05469 0.04297,0.101563 0.101562,0.101563 h 3 c -0.05469,0 -0.101563,-0.04297 -0.101563,-0.101563 v 3 c 0,-0.05469 0.04297,-0.101562 0.101563,-0.101562 h -3 c -0.05469,0 -0.101562,0.04297 -0.101562,0.101562 v 3 c 0,0.05469 0.04297,0.101563 0.101562,0.101563 h 3 c 0.542968,0 1.078125,-0.144532 1.550781,-0.414063 0.472657,-0.273437 0.863282,-0.664062 1.132812,-1.132812 0.273439,-0.472657 0.414064,-1.003907 0.414064,-1.550782 V 8.6900323 c 0,-1.0703121 -0.28125,-2.1210929 -0.816407,-3.050781 -0.535157,-0.925781 -1.304687,-1.699219 -2.234376,-2.234375 -0.92578,-0.535156 -1.980467,-0.8164058 -3.05078,-0.8164058 M 32.959536,31.287689"
       style="fill:none;stroke:#ff0000;stroke-width:0.1;stroke-linecap:butt;stroke-linejoin:miter;stroke-miterlimit:8.99494934;stroke-dasharray:none;stroke-opacity:1"
       id="path1350" />
    <path
       d="m 34.603218,26.787278 c 0,0.317257 -0.08988,0.625941 -0.261088,0.891752 -0.171204,0.26581 -0.41517,0.475885 -0.701937,0.60879 -0.286767,0.132907 -0.603495,0.175779 -0.915942,0.132907 -0.312445,-0.04287 -0.603494,-0.180067 -0.843181,-0.385854 -0.239685,-0.205791 -0.410888,-0.475887 -0.500769,-0.780283 -0.08988,-0.304397 -0.08988,-0.625942 0,-0.926051 0.08988,-0.304394 0.261084,-0.574493 0.500769,-0.780282 0.239687,-0.205788 0.530736,-0.338694 0.843181,-0.385853 0.312447,-0.04287 0.629175,0 0.915942,0.132904 0.286767,0.132905 0.530733,0.342982 0.701937,0.608792 0.171205,0.265811 0.261088,0.574495 0.261088,0.891751"
       style="fill:none;stroke:#ff0000;stroke-width:0.1;stroke-linecap:butt;stroke-linejoin:miter;stroke-miterlimit:8.99494934;stroke-dasharray:none;stroke-opacity:1"
       id="path1352"
       inkscape:connector-curvature="0" />
    <path
       inkscape:connector-curvature="0"
       d="m 32.959512,31.287676 c 0.808594,0 1.601562,-0.210936 2.300781,-0.617185 0.699219,-0.402344 1.281251,-0.984375 1.683594,-1.683595 0.402344,-0.699219 0.617187,-1.492187 0.617187,-2.300781 0,-0.808594 -0.210937,-1.601563 -0.617187,-2.300781 -0.402343,-0.699219 -0.984375,-1.28125 -1.683594,-1.683594 -0.699219,-0.402344 -1.492188,-0.617188 -2.300781,-0.617188 0.05469,0 0.101562,0.04297 0.101562,0.101563 v -3 c 0,-0.05469 -0.04297,-0.101563 -0.101562,-0.101563 h -3 c 0.05469,0 0.101562,0.04297 0.101562,0.101563 v -3 c 0,0.05469 -0.04297,0.101562 -0.101562,0.101562 h 3 c 0.05469,0 0.101562,-0.04297 0.101562,-0.101562 v -3 c 0,-0.05469 -0.04297,-0.101563 -0.101562,-0.101563 h -3 c -0.542969,0 -1.078125,0.144532 -1.550782,0.414063 -0.472656,0.273437 -0.863281,0.664062 -1.132812,1.132812 -0.273438,0.472657 -0.414063,1.003907 -0.414063,1.550782 v 9 c 1e-6,1.070312 0.281251,2.121093 0.816407,3.050781 0.535156,0.925783 1.304687,1.699221 2.234375,2.234375 0.925781,0.535157 1.980469,0.816406 3.050781,0.816406 M 34.662637,2.5845525"
       style="fill:none;stroke:#ff0000;stroke-width:0.1;stroke-linecap:butt;stroke-linejoin:miter;stroke-miterlimit:8.99494934;stroke-dasharray:none;stroke-opacity:1"
       id="path1354" />
    <path
       d="m 33.018917,7.0849644 c 0,-0.3172571 0.08988,-0.625941 0.261087,-0.8917513 0.171203,-0.2658107 0.415171,-0.4758861 0.701938,-0.6087912 0.286766,-0.1329063 0.603495,-0.1757776 0.915941,-0.1329063 0.312447,0.042872 0.603495,0.1800658 0.84318,0.3858551 0.239685,0.2057893 0.41089,0.4758868 0.500771,0.7802812 0.08988,0.3043968 0.08988,0.6259422 0,0.9260506 -0.08988,0.3043956 -0.261086,0.5744931 -0.500771,0.7802824 -0.239685,0.2057893 -0.530733,0.3386933 -0.84318,0.385854 -0.312446,0.042872 -0.629175,0 -0.915941,-0.1329052 C 33.695175,8.4440286 33.451207,8.233953 33.280004,7.9681415 33.1088,7.7023311 33.018917,7.3936471 33.018917,7.07639"
       style="fill:none;stroke:#ff0000;stroke-width:0.1;stroke-linecap:butt;stroke-linejoin:miter;stroke-miterlimit:8.99494934;stroke-dasharray:none;stroke-opacity:1"
       id="path1356"
       inkscape:connector-curvature="0" />
    <path
       inkscape:connector-curvature="0"
       d="m 34.662623,2.5845645 c -0.808594,0 -1.601562,0.210937 -2.300781,0.6171868 -0.699219,0.402344 -1.28125,0.984375 -1.683594,1.683594 -0.402344,0.699219 -0.617187,1.4921871 -0.617187,2.3007811 0,0.8085939 0.210937,1.6015631 0.617187,2.3007809 0.402344,0.6992187 0.984375,1.2812497 1.683594,1.6835937 0.699219,0.402344 1.492188,0.617188 2.300781,0.617188 -0.05469,0 -0.101562,-0.04297 -0.101562,-0.101563 v 3 c 0,0.05469 0.04297,0.101563 0.101562,0.101563 h 3 c -0.05469,0 -0.101562,-0.04297 -0.101562,-0.101563 v 3 c 0,-0.05469 0.04297,-0.101562 0.101562,-0.101562 h -3 c -0.05469,0 -0.101562,0.04297 -0.101562,0.101562 v 3 c 0,0.05469 0.04297,0.101563 0.101562,0.101563 h 3 c 0.542971,0 1.078125,-0.144532 1.550782,-0.414063 0.472657,-0.273437 0.863282,-0.664062 1.132813,-1.132812 0.273437,-0.472657 0.414063,-1.003907 0.414063,-1.550782 V 8.6900323 c 0,-1.0703121 -0.281253,-2.1210929 -0.816407,-3.050781 -0.535157,-0.925781 -1.304687,-1.699219 -2.234376,-2.234375 -0.925781,-0.535156 -1.980469,-0.8164058 -3.050781,-0.8164058 m 13.69922,28.6992185"
       style="fill:none;stroke:#ff0000;stroke-width:0.1;stroke-linecap:butt;stroke-linejoin:miter;stroke-miterlimit:8.99494934;stroke-dasharray:none;stroke-opacity:1"
       id="path1358" />
    <path
       d="m 50.001617,26.787278 c 0,0.317257 -0.08988,0.625941 -0.261086,0.891752 -0.171204,0.26581 -0.415169,0.475885 -0.701936,0.60879 -0.286768,0.132906 -0.603496,0.175778 -0.915943,0.132906 -0.312449,-0.04287 -0.603494,-0.180065 -0.843181,-0.385854 -0.239685,-0.20579 -0.410889,-0.475888 -0.500771,-0.780282 -0.08988,-0.304397 -0.08988,-0.625942 0,-0.92605 0.08988,-0.304395 0.261086,-0.574494 0.500771,-0.780283 0.239687,-0.205789 0.530732,-0.338693 0.843181,-0.385854 0.312447,-0.04287 0.629175,0 0.915943,0.132905 0.286767,0.132906 0.530732,0.342981 0.701936,0.608792 0.171204,0.265811 0.261086,0.574495 0.261086,0.891752"
       style="fill:none;stroke:#ff0000;stroke-width:0.1;stroke-linecap:butt;stroke-linejoin:miter;stroke-miterlimit:8.99494934;stroke-dasharray:none;stroke-opacity:1"
       id="path1360"
       inkscape:connector-curvature="0" />
    <path
       inkscape:connector-curvature="0"
       d="m 48.35791,31.287676 c 0.808593,0 1.601563,-0.210936 2.300782,-0.617185 0.699217,-0.402344 1.28125,-0.984375 1.683594,-1.683595 0.402342,-0.699219 0.617186,-1.492187 0.617186,-2.300781 0,-0.808594 -0.210936,-1.601563 -0.617186,-2.300781 -0.402344,-0.699219 -0.984377,-1.28125 -1.683594,-1.683594 -0.699219,-0.402344 -1.492189,-0.617188 -2.300782,-0.617188 0.05469,0 0.101563,0.04297 0.101563,0.101563 v -3 c 0,-0.05469 -0.04297,-0.101563 -0.101563,-0.101563 h -2.999999 c 0.05469,0 0.101563,0.04297 0.101563,0.101563 v -3 c 0,0.05469 -0.04297,0.101562 -0.101563,0.101562 h 2.999999 c 0.05469,0 0.101563,-0.04297 0.101563,-0.101562 v -3 c 0,-0.05469 -0.04297,-0.101563 -0.101563,-0.101563 h -2.999999 c -0.54297,0 -1.078124,0.144532 -1.550781,0.414063 -0.472657,0.273437 -0.863283,0.664062 -1.132814,1.132812 -0.273439,0.472657 -0.414062,1.003907 -0.414062,1.550782 v 9 c 0,1.070312 0.281249,2.121093 0.816406,3.050781 0.535157,0.925783 1.304687,1.699221 2.234375,2.234375 0.925782,0.535157 1.980469,0.816406 3.05078,0.816406 M 50.061036,2.5845525"
       style="fill:none;stroke:#ff0000;stroke-width:0.1;stroke-linecap:butt;stroke-linejoin:miter;stroke-miterlimit:8.99494934;stroke-dasharray:none;stroke-opacity:1"
       id="path1362" />
    <path
       d="m 48.417419,7.0849644 c 0,-0.3172571 0.08988,-0.625941 0.261086,-0.8917513 0.171204,-0.2658107 0.415168,-0.4758861 0.701936,-0.6087912 0.286767,-0.1329063 0.603493,-0.1757776 0.915943,-0.1329063 0.312449,0.042872 0.603496,0.1800658 0.843181,0.3858551 0.239685,0.2057893 0.410889,0.4758868 0.500771,0.7802812 0.08988,0.3043967 0.08988,0.6259422 0,0.9260506 -0.08988,0.3043956 -0.261086,0.5744931 -0.500771,0.7802825 -0.239685,0.2057892 -0.530732,0.3386932 -0.843181,0.3858539 -0.31245,0.042872 -0.629176,0 -0.915943,-0.1329052 C 49.093673,8.4440286 48.849709,8.233953 48.678505,7.9681415 48.507298,7.7023311 48.417419,7.3936471 48.417419,7.07639"
       style="fill:none;stroke:#ff0000;stroke-width:0.1;stroke-linecap:butt;stroke-linejoin:miter;stroke-miterlimit:8.99494934;stroke-dasharray:none;stroke-opacity:1"
       id="path1364"
       inkscape:connector-curvature="0" />
    <path
       inkscape:connector-curvature="0"
       d="m 50.061123,2.5845645 c -0.808596,0 -1.601563,0.210937 -2.300782,0.6171868 -0.69922,0.402344 -1.28125,0.984375 -1.683594,1.683594 -0.402344,0.699219 -0.617186,1.4921871 -0.617186,2.3007811 0,0.8085939 0.210936,1.6015631 0.617186,2.3007809 0.402344,0.6992187 0.984374,1.2812497 1.683594,1.6835937 0.699219,0.402344 1.492186,0.617188 2.300782,0.617188 -0.05469,0 -0.101563,-0.04297 -0.101563,-0.101563 v 3 c 0,0.05469 0.04297,0.101563 0.101563,0.101563 h 2.999999 c -0.05469,0 -0.101563,-0.04297 -0.101563,-0.101563 v 3 c 0,-0.05469 0.04297,-0.101562 0.101563,-0.101562 h -2.999999 c -0.05469,0 -0.101563,0.04297 -0.101563,0.101562 v 3 c 0,0.05469 0.04297,0.101563 0.101563,0.101563 h 2.999999 c 0.54297,0 1.078124,-0.144532 1.550781,-0.414063 0.472657,-0.273437 0.863283,-0.664062 1.132814,-1.132812 0.273436,-0.472657 0.414062,-1.003907 0.414062,-1.550782 V 8.6900323 c 0,-1.0703121 -0.281252,-2.1210929 -0.816406,-3.050781 -0.535157,-0.925781 -1.304687,-1.699219 -2.234377,-2.234375 -0.92578,-0.535156 -1.980467,-0.8164058 -3.050781,-0.8164058 m 13.69922,28.6992185"
       style="fill:none;stroke:#ff0000;stroke-width:0.1;stroke-linecap:butt;stroke-linejoin:miter;stroke-miterlimit:8.99494934;stroke-dasharray:none;stroke-opacity:1"
       id="path1366" />
    <path
       d="m 65.400117,26.787278 c 0,0.317257 -0.08988,0.625941 -0.261086,0.891752 -0.171204,0.26581 -0.415168,0.475885 -0.701938,0.60879 -0.286764,0.132907 -0.603493,0.175778 -0.915942,0.132907 -0.312446,-0.04287 -0.603493,-0.180066 -0.843181,-0.385854 -0.239684,-0.205791 -0.410888,-0.475887 -0.50077,-0.780283 -0.08988,-0.304397 -0.08988,-0.625942 0,-0.92605 0.08988,-0.304395 0.261086,-0.574494 0.50077,-0.780283 0.239688,-0.205789 0.530735,-0.338693 0.843181,-0.385854 0.312449,-0.04287 0.629178,0 0.915942,0.132906 0.28677,0.132905 0.530734,0.342981 0.701938,0.608791 0.171204,0.265811 0.261086,0.574495 0.261086,0.891752"
       style="fill:none;stroke:#ff0000;stroke-width:0.1;stroke-linecap:butt;stroke-linejoin:miter;stroke-miterlimit:8.99494934;stroke-dasharray:none;stroke-opacity:1"
       id="path1368"
       inkscape:connector-curvature="0" />
    <path
       inkscape:connector-curvature="0"
       d="m 63.756411,31.287676 c 0.808593,0 1.601563,-0.210936 2.300783,-0.617185 0.699217,-0.402344 1.28125,-0.984375 1.683594,-1.683595 0.402344,-0.699219 0.617185,-1.492187 0.617185,-2.300781 0,-0.808594 -0.210936,-1.601563 -0.617185,-2.300781 -0.402344,-0.699219 -0.984377,-1.28125 -1.683594,-1.683594 -0.69922,-0.402344 -1.49219,-0.617188 -2.300783,-0.617188 0.05469,0 0.101563,0.04297 0.101563,0.101563 v -3 c 0,-0.05469 -0.04297,-0.101563 -0.101563,-0.101563 h -2.999999 c 0.05469,0 0.101563,0.04297 0.101563,0.101563 v -3 c 0,0.05469 -0.04297,0.101562 -0.101563,0.101562 h 2.999999 c 0.05469,0 0.101563,-0.04297 0.101563,-0.101562 v -3 c 0,-0.05469 -0.04297,-0.101563 -0.101563,-0.101563 h -2.999999 c -0.54297,0 -1.078124,0.144532 -1.550781,0.414063 -0.472657,0.273437 -0.863283,0.664062 -1.132814,1.132812 -0.273436,0.472657 -0.414062,1.003907 -0.414062,1.550782 v 9 c 0,1.070312 0.281249,2.121093 0.816406,3.050781 0.535157,0.925783 1.304687,1.699221 2.234375,2.234375 0.925782,0.535157 1.98047,0.816406 3.050781,0.816406 m 1.69922,-28.6992185"
       style="fill:none;stroke:#ff0000;stroke-width:0.1;stroke-linecap:butt;stroke-linejoin:miter;stroke-miterlimit:8.99494934;stroke-dasharray:none;stroke-opacity:1"
       id="path1370" />
    <path
       d="m 63.815818,7.0849644 c 0,-0.3172571 0.08988,-0.625941 0.261086,-0.8917513 0.171204,-0.2658107 0.415171,-0.4758861 0.701938,-0.6087912 0.286768,-0.1329063 0.603493,-0.1757777 0.915942,-0.1329063 0.312446,0.042872 0.603493,0.1800658 0.843181,0.3858551 0.239684,0.2057893 0.410888,0.4758868 0.50077,0.7802812 0.08988,0.3043967 0.08988,0.6259422 0,0.9260506 -0.08988,0.3043956 -0.261086,0.5744931 -0.50077,0.7802825 -0.239688,0.2057892 -0.530735,0.3386932 -0.843181,0.385854 -0.312449,0.042872 -0.629174,0 -0.915942,-0.1329053 C 64.492075,8.4440286 64.248108,8.233953 64.076904,7.9681415 63.9057,7.7023311 63.815818,7.3936471 63.815818,7.07639"
       style="fill:none;stroke:#ff0000;stroke-width:0.1;stroke-linecap:butt;stroke-linejoin:miter;stroke-miterlimit:8.99494934;stroke-dasharray:none;stroke-opacity:1"
       id="path1372"
       inkscape:connector-curvature="0" />
    <path
       inkscape:connector-curvature="0"
       d="m 65.459524,2.5845645 c -0.808596,0 -1.601563,0.210937 -2.300783,0.6171868 -0.699219,0.402344 -1.28125,0.984375 -1.683594,1.683594 -0.402344,0.699219 -0.617185,1.4921871 -0.617185,2.3007811 0,0.8085939 0.210936,1.6015631 0.617185,2.3007809 0.402344,0.6992187 0.984375,1.2812497 1.683594,1.6835937 0.69922,0.402344 1.492187,0.617188 2.300783,0.617188 -0.05469,0 -0.101563,-0.04297 -0.101563,-0.101563 v 3 c 0,0.05469 0.04297,0.101563 0.101563,0.101563 h 2.999999 c -0.05469,0 -0.101563,-0.04297 -0.101563,-0.101563 v 3 c 0,-0.05469 0.04297,-0.101562 0.101563,-0.101562 h -2.999999 c -0.05469,0 -0.101563,0.04297 -0.101563,0.101562 v 3 c 0,0.05469 0.04297,0.101563 0.101563,0.101563 h 2.999999 c 0.54297,0 1.078124,-0.144532 1.550781,-0.414063 0.472657,-0.273437 0.863283,-0.664062 1.132814,-1.132812 0.273436,-0.472657 0.414062,-1.003907 0.414062,-1.550782 V 8.6900323 c 0,-1.0703121 -0.281252,-2.1210929 -0.816406,-3.050781 -0.535157,-0.925781 -1.304687,-1.699219 -2.234377,-2.234375 -0.92578,-0.535156 -1.980468,-0.8164058 -3.050781,-0.8164058 m 13.69922,28.6992185"
       style="fill:none;stroke:#ff0000;stroke-width:0.1;stroke-linecap:butt;stroke-linejoin:miter;stroke-miterlimit:8.99494934;stroke-dasharray:none;stroke-opacity:1"
       id="path1374" />
    <path
       d="m 80.798518,26.787278 c 0,0.317257 -0.08988,0.625941 -0.261086,0.891752 -0.171204,0.26581 -0.415172,0.475885 -0.701939,0.60879 -0.286767,0.132907 -0.603492,0.175778 -0.915942,0.132907 -0.312445,-0.04287 -0.603492,-0.180066 -0.84318,-0.385854 -0.239685,-0.205791 -0.410888,-0.475889 -0.50077,-0.780283 -0.08988,-0.304397 -0.08988,-0.625942 0,-0.92605 0.08988,-0.304395 0.261085,-0.574494 0.50077,-0.780283 0.239688,-0.205789 0.530735,-0.338693 0.84318,-0.385854 0.31245,-0.04287 0.629175,0 0.915942,0.132905 0.286767,0.132906 0.530735,0.342981 0.701939,0.608792 0.171204,0.265811 0.261086,0.574495 0.261086,0.891752"
       style="fill:none;stroke:#ff0000;stroke-width:0.1;stroke-linecap:butt;stroke-linejoin:miter;stroke-miterlimit:8.99494934;stroke-dasharray:none;stroke-opacity:1"
       id="path1376"
       inkscape:connector-curvature="0" />
    <path
       inkscape:connector-curvature="0"
       d="m 79.154809,31.287676 c 0.808594,0 1.601563,-0.210936 2.300783,-0.617185 0.699217,-0.402344 1.28125,-0.984375 1.683594,-1.683595 0.402341,-0.699219 0.617185,-1.492187 0.617185,-2.300781 0,-0.808594 -0.210936,-1.601563 -0.617185,-2.300781 -0.402344,-0.699219 -0.984377,-1.28125 -1.683594,-1.683594 -0.69922,-0.402344 -1.492189,-0.617188 -2.300783,-0.617188 0.05469,0 0.101563,0.04297 0.101563,0.101563 v -3 c 0,-0.05469 -0.04297,-0.101563 -0.101563,-0.101563 H 76.15481 c 0.05469,0 0.101563,0.04297 0.101563,0.101563 v -3 c 0,0.05469 -0.04297,0.101562 -0.101563,0.101562 h 2.999999 c 0.05469,0 0.101563,-0.04297 0.101563,-0.101562 v -3 c 0,-0.05469 -0.04297,-0.101563 -0.101563,-0.101563 H 76.15481 c -0.54297,0 -1.078124,0.144532 -1.550781,0.414063 -0.472657,0.273437 -0.863282,0.664062 -1.132814,1.132812 -0.273438,0.472657 -0.414062,1.003907 -0.414062,1.550782 v 9 c 0,1.070312 0.28125,2.121093 0.816406,3.050781 0.535157,0.925783 1.304687,1.699221 2.234375,2.234375 0.925782,0.535157 1.98047,0.816406 3.050781,0.816406 m 1.69922,-28.6992185"
       style="fill:none;stroke:#ff0000;stroke-width:0.1;stroke-linecap:butt;stroke-linejoin:miter;stroke-miterlimit:8.99494934;stroke-dasharray:none;stroke-opacity:1"
       id="path1378" />
    <path
       d="m 79.214218,7.0849644 c 0,-0.3172572 0.08988,-0.6259411 0.261086,-0.8917514 0.171204,-0.2658107 0.415169,-0.4758861 0.701939,-0.6087911 0.286765,-0.1329064 0.603494,-0.1757777 0.915942,-0.1329064 0.312447,0.042872 0.603494,0.1800659 0.843181,0.3858551 0.239685,0.2057894 0.410889,0.4758869 0.500771,0.7802813 0.08988,0.3043967 0.08988,0.6259422 0,0.9260506 -0.08988,0.3043957 -0.261086,0.5744932 -0.500771,0.7802825 -0.239687,0.2057893 -0.530734,0.3386933 -0.843181,0.3858541 -0.312448,0.042872 -0.629177,0 -0.915942,-0.1329053 C 79.890473,8.4440286 79.646508,8.233953 79.475304,7.9681415 79.3041,7.7023311 79.214218,7.3936472 79.214218,7.0763901"
       style="fill:none;stroke:#ff0000;stroke-width:0.1;stroke-linecap:butt;stroke-linejoin:miter;stroke-miterlimit:8.99494934;stroke-dasharray:none;stroke-opacity:1"
       id="path1380"
       inkscape:connector-curvature="0" />
    <path
       inkscape:connector-curvature="0"
       d="m 80.857924,2.5845645 c -0.808595,0 -1.601562,0.210937 -2.300782,0.6171868 -0.69922,0.402344 -1.28125,0.984375 -1.683594,1.683594 -0.402344,0.699219 -0.617185,1.4921879 -0.617185,2.3007811 0,0.8085939 0.210936,1.6015631 0.617185,2.300782 0.402344,0.6992176 0.984374,1.2812496 1.683594,1.6835926 0.69922,0.402344 1.492187,0.617188 2.300782,0.617188 -0.05469,0 -0.101563,-0.04297 -0.101563,-0.101563 v 3 c 0,0.05469 0.04297,0.101563 0.101563,0.101563 h 3 c -0.05469,0 -0.101563,-0.04297 -0.101563,-0.101563 v 3 c 0,-0.05469 0.04297,-0.101562 0.101563,-0.101562 h -3 c -0.05469,0 -0.101563,0.04297 -0.101563,0.101562 v 3 c 0,0.05469 0.04297,0.101563 0.101563,0.101563 h 3 c 0.54297,0 1.078124,-0.144531 1.550781,-0.414063 0.472657,-0.273437 0.863282,-0.664062 1.132813,-1.132812 0.273437,-0.472656 0.414063,-1.003906 0.414063,-1.550781 V 8.6900334 c 0,-1.0703132 -0.281252,-2.121094 -0.816407,-3.0507821 -0.535156,-0.925781 -1.304686,-1.699218 -2.234377,-2.234375 -0.925779,-0.535156 -1.980467,-0.8164058 -3.05078,-0.8164058 m 13.69922,28.6992185"
       style="fill:none;stroke:#ff0000;stroke-width:0.1;stroke-linecap:butt;stroke-linejoin:miter;stroke-miterlimit:8.99494934;stroke-dasharray:none;stroke-opacity:1"
       id="path1382" />
    <g
       aria-label="j  i  n  g  e  l  s  k  i"
       style="font-style:normal;font-variant:normal;font-weight:300;font-stretch:normal;font-size:6.3499999px;line-height:1.25;font-family:Nexa;-inkscape-font-specification:'Nexa, Light';font-variant-ligatures:normal;font-variant-caps:normal;font-variant-numeric:normal;font-feature-settings:normal;text-align:start;letter-spacing:0px;word-spacing:0px;writing-mode:lr-tb;text-anchor:start;fill:#000000;fill-opacity:1;stroke:none;stroke-width:0.025;stroke-miterlimit:8.99494934;stroke-dasharray:none"
       id="text3719"
       transform="matrix(0,3.9999999,-3.9999999,0,1374.2803,31.250388)">
      <path
         d="m 5.9063062,286.50364 c 0,0.1651 0.127,0.24765 0.254,0.24765 0.12065,0 0.24765,-0.0825 0.24765,-0.24765 0,-0.1651 -0.127,-0.24765 -0.24765,-0.24765 -0.127,0 -0.254,0.0826 -0.254,0.24765 z m 0.1016,1.04775 h 0.3048 v 3.44805 c 0.00635,0.60325 -0.1397,1.07315 -0.8382,1.07315 -0.2159,0 -0.37465,-0.0508 -0.56515,-0.1524 l 0.0889,-0.2667 c 0.14605,0.0826 0.31115,0.127 0.47625,0.127 0.4826,0 0.5334,-0.3556 0.5334,-0.78105 z"
         style="font-style:normal;font-variant:normal;font-weight:300;font-stretch:normal;font-size:6.3499999px;font-family:Nexa;-inkscape-font-specification:'Nexa, Light';font-variant-ligatures:normal;font-variant-caps:normal;font-variant-numeric:normal;font-feature-settings:normal;text-align:start;writing-mode:lr-tb;text-anchor:start;stroke-width:0.025;stroke-miterlimit:8.99494934;stroke-dasharray:none"
         id="path3725"
         inkscape:connector-curvature="0" />
      <path
         d="m 10.568397,286.53539 c 0,0.1651 0.127,0.24765 0.254,0.24765 0.12065,0 0.24765,-0.0826 0.24765,-0.24765 0,-0.1651 -0.127,-0.24765 -0.24765,-0.24765 -0.127,0 -0.254,0.0826 -0.254,0.24765 z m 0.0889,1.00965 h 0.31115 v 3.1496 h -0.31115 z"
         style="font-style:normal;font-variant:normal;font-weight:300;font-stretch:normal;font-size:6.3499999px;font-family:Nexa;-inkscape-font-specification:'Nexa, Light';font-variant-ligatures:normal;font-variant-caps:normal;font-variant-numeric:normal;font-feature-settings:normal;text-align:start;writing-mode:lr-tb;text-anchor:start;stroke-width:0.025;stroke-miterlimit:8.99494934;stroke-dasharray:none"
         id="path3727"
         inkscape:connector-curvature="0" />
      <path
         d="m 15.662585,287.55774 h -0.3048 v 3.1369 h 0.31115 v -1.74625 c 0,-0.65405 0.4572,-1.143 1.1176,-1.143 0.66675,0 1.09855,0.381 1.09855,1.08585 v 1.8034 h 0.31115 v -1.80975 c 0,-0.86995 -0.57785,-1.3843 -1.41605,-1.3843 -0.43815,0.006 -0.8763,0.18415 -1.1176,0.61595 z"
         style="font-style:normal;font-variant:normal;font-weight:300;font-stretch:normal;font-size:6.3499999px;font-family:Nexa;-inkscape-font-specification:'Nexa, Light';font-variant-ligatures:normal;font-variant-caps:normal;font-variant-numeric:normal;font-feature-settings:normal;text-align:start;writing-mode:lr-tb;text-anchor:start;stroke-width:0.025;stroke-miterlimit:8.99494934;stroke-dasharray:none"
         id="path3729"
         inkscape:connector-curvature="0" />
      <path
         d="m 25.022485,287.43074 -0.3048,0.3556 c -0.2413,-0.17145 -0.5715,-0.28575 -0.889,-0.28575 -0.8128,0 -1.4732,0.55245 -1.4732,1.53035 0,0.8382 0.56515,1.51765 1.4732,1.51765 0.5842,0 1.18745,0.2667 1.18745,0.9398 0,0.66675 -0.5588,0.94615 -1.18745,0.94615 -0.62865,0 -1.17475,-0.3048 -1.17475,-0.94615 h -0.31115 c 0,0.79375 0.65405,1.25095 1.4859,1.25095 0.83185,0 1.49225,-0.4064 1.49225,-1.25095 0,-0.53975 -0.3048,-0.9271 -0.85725,-1.12395 0.5207,-0.23495 0.84455,-0.7874 0.84455,-1.3335 0,-0.508 -0.1651,-0.8255 -0.38735,-1.0668 l 0.3048,-0.3556 z m -1.1938,0.381 c 0.6477,0 1.17475,0.42545 1.17475,1.2192 0,0.6477 -0.52705,1.2065 -1.17475,1.2065 -0.71755,0 -1.16205,-0.5588 -1.16205,-1.2065 0,-0.81915 0.5207,-1.2192 1.16205,-1.2192 z"
         style="font-style:normal;font-variant:normal;font-weight:300;font-stretch:normal;font-size:6.3499999px;font-family:Nexa;-inkscape-font-specification:'Nexa, Light';font-variant-ligatures:normal;font-variant-caps:normal;font-variant-numeric:normal;font-feature-settings:normal;text-align:start;writing-mode:lr-tb;text-anchor:start;stroke-width:0.025;stroke-miterlimit:8.99494934;stroke-dasharray:none"
         id="path3731"
         inkscape:connector-curvature="0" />
      <path
         d="m 30.862898,290.73909 c 0.50165,0 1.04775,-0.2032 1.35255,-0.60325 l -0.22225,-0.1778 c -0.23495,0.31115 -0.71755,0.47625 -1.1303,0.47625 -0.6477,0 -1.21285,-0.42545 -1.27635,-1.16205 h 2.82575 c 0.0063,-0.0826 0.0127,-0.1651 0.0127,-0.2413 0,-1.0541 -0.74295,-1.524 -1.5621,-1.524 -0.88265,0 -1.59385,0.67945 -1.59385,1.61925 0,0.99695 0.7112,1.6129 1.59385,1.6129 z m 1.27,-1.7399 h -2.54635 c 0.06985,-0.76835 0.62865,-1.2065 1.27635,-1.2065 0.75565,0 1.26365,0.4318 1.27,1.2065 z"
         style="font-style:normal;font-variant:normal;font-weight:300;font-stretch:normal;font-size:6.3499999px;font-family:Nexa;-inkscape-font-specification:'Nexa, Light';font-variant-ligatures:normal;font-variant-caps:normal;font-variant-numeric:normal;font-feature-settings:normal;text-align:start;writing-mode:lr-tb;text-anchor:start;stroke-width:0.025;stroke-miterlimit:8.99494934;stroke-dasharray:none"
         id="path3733"
         inkscape:connector-curvature="0" />
      <path
         d="m 37.02577,286.24964 h -0.31115 v 4.445 h 0.31115 z"
         style="font-style:normal;font-variant:normal;font-weight:300;font-stretch:normal;font-size:6.3499999px;font-family:Nexa;-inkscape-font-specification:'Nexa, Light';font-variant-ligatures:normal;font-variant-caps:normal;font-variant-numeric:normal;font-feature-settings:normal;text-align:start;writing-mode:lr-tb;text-anchor:start;stroke-width:0.025;stroke-miterlimit:8.99494934;stroke-dasharray:none"
         id="path3735"
         inkscape:connector-curvature="0" />
      <path
         d="m 43.542952,288.12924 0.1905,-0.2032 c -0.3175,-0.29845 -0.7239,-0.4191 -1.18745,-0.4191 -0.6223,0 -1.22555,0.2667 -1.22555,0.86995 0,0.635 0.60325,0.7493 1.2192,0.8509 0.508,0.0825 1.02235,0.17145 1.02235,0.60325 0,0.51435 -0.59055,0.61595 -0.9779,0.61595 -0.4191,0 -0.889,-0.15875 -1.14935,-0.5334 l -0.2286,0.2032 c 0.27305,0.4191 0.81915,0.62865 1.3716,0.62865 0.56515,0 1.28905,-0.1905 1.28905,-0.92075 0,-0.69215 -0.7493,-0.78105 -1.2954,-0.8763 -0.40005,-0.0699 -0.9525,-0.1524 -0.9525,-0.59055 0,-0.381 0.45085,-0.5588 0.92075,-0.5588 0.36195,0 0.67945,0.0444 1.0033,0.3302 z"
         style="font-style:normal;font-variant:normal;font-weight:300;font-stretch:normal;font-size:6.3499999px;font-family:Nexa;-inkscape-font-specification:'Nexa, Light';font-variant-ligatures:normal;font-variant-caps:normal;font-variant-numeric:normal;font-feature-settings:normal;text-align:start;writing-mode:lr-tb;text-anchor:start;stroke-width:0.025;stroke-miterlimit:8.99494934;stroke-dasharray:none"
         id="path3737"
         inkscape:connector-curvature="0" />
      <path
         d="m 48.355163,286.24964 h -0.3048 v 4.445 h 0.3048 v -1.5367 l 1.68275,1.5367 h 0.3937 v -0.019 l -1.77165,-1.6383 1.5875,-1.46685 v -0.0127 h -0.41275 l -1.47955,1.3716 z"
         style="font-style:normal;font-variant:normal;font-weight:300;font-stretch:normal;font-size:6.3499999px;font-family:Nexa;-inkscape-font-specification:'Nexa, Light';font-variant-ligatures:normal;font-variant-caps:normal;font-variant-numeric:normal;font-feature-settings:normal;text-align:start;writing-mode:lr-tb;text-anchor:start;stroke-width:0.025;stroke-miterlimit:8.99494934;stroke-dasharray:none"
         id="path3739"
         inkscape:connector-curvature="0" />
      <path
         d="m 54.237048,286.53539 c 0,0.1651 0.127,0.24765 0.254,0.24765 0.12065,0 0.24765,-0.0826 0.24765,-0.24765 0,-0.1651 -0.127,-0.24765 -0.24765,-0.24765 -0.127,0 -0.254,0.0826 -0.254,0.24765 z m 0.0889,1.00965 h 0.31115 v 3.1496 h -0.31115 z"
         style="font-style:normal;font-variant:normal;font-weight:300;font-stretch:normal;font-size:6.3499999px;font-family:Nexa;-inkscape-font-specification:'Nexa, Light';font-variant-ligatures:normal;font-variant-caps:normal;font-variant-numeric:normal;font-feature-settings:normal;text-align:start;writing-mode:lr-tb;text-anchor:start;stroke-width:0.025;stroke-miterlimit:8.99494934;stroke-dasharray:none"
         id="path3741"
         inkscape:connector-curvature="0" />
    </g>
    <path
       style="fill:#000000;stroke:#000000;stroke-width:0.1;stroke-miterlimit:8.99494934;stroke-dasharray:none"
       d="m 207.6097,229.91675 c -0.032,-0.99192 0.076,-1.93804 0.3032,-2.82264 0.31639,-1.22632 1.11956,-2.574 2.03687,-3.41596 2.82061,-2.589 7.72464,-2.6486 13.03977,-0.1584 2.22731,1.04356 3.97728,2.17872 6.12564,3.97372 l 0.724,0.60504 0.32119,-0.1872 c 0.90497,-0.52768 2.05364,-0.196 2.64069,0.76208 0.1688,0.2744 0.1976,0.3968 0.2044,0.88036 0.012,0.49728 -0.016,0.6086 -0.2012,0.9664 l -0.212,0.40432 0.605,0.74792 c 2.73939,3.38772 4.53403,7.2212 4.98388,10.64584 0.1124,0.862 0.126,1.95912 0.036,2.77496 -0.3932,3.3716 -2.35672,5.65484 -5.57656,6.484 -0.70688,0.182 -0.88876,0.2 -2.24449,0.2212 -1.66263,0.024 -2.431,-0.0664 -3.95568,-0.4762 -3.17623,-0.85336 -6.18676,-2.4556 -9.28252,-4.94004 -0.76307,-0.61252 -2.93784,-2.68984 -3.46323,-3.30824 l -0.3192,-0.3744 -0.5424,0.012 c -0.49533,0.008 -0.56936,-0.008 -0.8518,-0.2036 -0.441,-0.3044 -0.66616,-0.71756 -0.67785,-1.24408 -0.008,-0.2652 0.04,-0.51 0.108,-0.6602 l 0.11561,-0.2388 -0.45776,-0.70348 c -2.19768,-3.378 -3.38528,-6.76632 -3.45716,-9.74208 z m 0.4942,-0.2432 c 0.02,0.94108 0.1172,2.00436 0.28399,2.71696 0.512,2.21596 1.40189,4.316 2.73281,6.44888 0.76972,1.23336 0.70072,1.16312 0.99764,1.01484 0.3648,-0.1824 0.9904,-0.174 1.3748,0.016 0.3684,0.1844 0.73884,0.67184 0.80904,1.06452 0.0556,0.3188 -0.002,0.81004 -0.0872,0.75792 -0.04,-0.02 -0.0444,0.008 -0.028,0.0584 0.032,0.052 -0.0556,0.2316 -0.1728,0.3984 l -0.2116,0.3036 0.2724,0.3236 c 0.47544,0.56352 2.10387,2.14312 2.95556,2.8668 3.67183,3.1204 7.82112,5.13824 11.56444,5.62412 0.96736,0.1256 2.66104,0.096 3.47651,-0.0604 1.56728,-0.3012 2.75037,-0.92588 3.78481,-1.99856 1.10228,-1.1432 1.67316,-2.39548 1.88947,-4.14492 0.0568,-0.4672 0.0412,-2.10572 -0.032,-2.63452 -0.42192,-3.3314 -2.20644,-7.12752 -4.95188,-10.53404 l -0.54132,-0.67168 -0.326,0.1516 c -0.96456,0.4478 -2.2058,-0.0476 -2.60561,-1.03992 -0.17599,-0.44048 -0.14479,-1.26 0.0612,-1.6098 l 0.14439,-0.2444 -0.33719,-0.312 c -0.86953,-0.80432 -2.28449,-1.86384 -3.62852,-2.71716 -5.27996,-3.35232 -10.8192,-4.21284 -14.22976,-2.2106 -0.75268,0.44196 -1.87941,1.61024 -2.29376,2.3786 -0.3752,0.695 -0.70712,1.71828 -0.84209,2.59116 -0.0576,0.3748 -0.0792,0.89532 -0.0708,1.46 z m 18.9866,19.54868 c -0.008,-0.3352 0.14719,-0.67908 0.46147,-0.90004 0.20001,-0.1412 0.30841,-0.1672 0.61496,-0.1484 0.43197,0.028 0.70137,0.1892 0.885,0.53368 0.27441,0.51512 0.0736,1.17024 -0.43503,1.412 -0.1612,0.0764 -0.3712,0.1404 -0.46753,0.1424 -0.098,0.002 -0.30999,-0.0544 -0.47248,-0.1248 -0.38319,-0.166 -0.58352,-0.53468 -0.58639,-0.91456 z"
       id="path910"
       inkscape:connector-curvature="0" />
    <path
       style="fill:none;stroke:#ff0000;stroke-width:0.1;stroke-linecap:butt;stroke-linejoin:miter;stroke-miterlimit:8.99494934;stroke-dasharray:none;stroke-opacity:1"
       d="M 90.999999,3.5000052 H 106.24809 V 6.386725 H 90.861379 V 3.5000052 Z"
       id="path2415-3-6"
       inkscape:connector-curvature="0" />
    <path
       style="fill:none;stroke:#ff0000;stroke-width:0.1;stroke-linecap:butt;stroke-linejoin:miter;stroke-miterlimit:8.99494934;stroke-dasharray:none;stroke-opacity:1"
       d="M 90.999999,8.0583386 H 106.24809 V 10.945059 H 90.861379 V 8.0583386 Z"
       id="path2415-3-6-7"
       inkscape:connector-curvature="0" />
    <path
       style="fill:none;stroke:#ff0000;stroke-width:0.1;stroke-linecap:butt;stroke-linejoin:miter;stroke-miterlimit:8.99494934;stroke-dasharray:none;stroke-opacity:1"
       d="M 91.251907,13.087506 H 106.5 v 2.88672 H 91.113287 v -2.88672 z"
       id="path2415-3-6-7-5"
       inkscape:connector-curvature="0" />
    <path
       style="fill:none;stroke:#ff0000;stroke-width:0.1;stroke-linecap:butt;stroke-linejoin:miter;stroke-miterlimit:8.99494934;stroke-dasharray:none;stroke-opacity:1"
       d="M 91.251907,18.675007 H 106.5 v 2.88672 H 91.113287 v -2.88672 z"
       id="path2415-3-6-7-3"
       inkscape:connector-curvature="0" />
    <flowRoot
       xml:space="preserve"
       id="flowRoot2601"
       style="font-style:normal;font-variant:normal;font-weight:normal;font-stretch:normal;font-size:21.33333397px;line-height:1.25;font-family:Arial;-inkscape-font-specification:'Arial, Normal';font-variant-ligatures:normal;font-variant-caps:normal;font-variant-numeric:normal;font-feature-settings:normal;text-align:start;letter-spacing:0px;word-spacing:0px;writing-mode:lr-tb;text-anchor:start;fill:#000000;fill-opacity:1;stroke:none;stroke-width:0.37795275;stroke-miterlimit:8.99494934;stroke-dasharray:none"
       transform="matrix(0.26458333,0,0,0.26458333,0,-3)"><flowRegion
         id="flowRegion2603"
         style="font-style:normal;font-variant:normal;font-weight:normal;font-stretch:normal;font-size:21.33333397px;font-family:Arial;-inkscape-font-specification:'Arial, Normal';font-variant-ligatures:normal;font-variant-caps:normal;font-variant-numeric:normal;font-feature-settings:normal;text-align:start;writing-mode:lr-tb;text-anchor:start;stroke-width:0.37795275;stroke-miterlimit:8.99494934;stroke-dasharray:none"><rect
           id="rect2605"
           width="423.30707"
           height="45.354332"
           x="604.72443"
           y="1012.9134"
           style="font-style:normal;font-variant:normal;font-weight:normal;font-stretch:normal;font-size:21.33333397px;font-family:Arial;-inkscape-font-specification:'Arial, Normal';font-variant-ligatures:normal;font-variant-caps:normal;font-variant-numeric:normal;font-feature-settings:normal;text-align:start;writing-mode:lr-tb;text-anchor:start;stroke-width:0.37795275;stroke-miterlimit:8.99494934;stroke-dasharray:none" /></flowRegion><flowPara
         id="flowPara2607">11-2019</flowPara></flowRoot>  </g>
</svg>
